<svg xmlns="http://www.w3.org/2000/svg" viewBox="0 0 688.13 606.21"><defs><style>.cls-1{fill:#666;}</style></defs><title>资源 1</title><g id="图层_2" data-name="图层 2"><g id="图层_1-2" data-name="图层 1"><path class="cls-1" d="M671.74,442.37H475.14c-8.19,0-16.38-8.19-16.38-16.38s8.19-16.38,16.38-16.38h196.6c8.2,0,16.39,8.19,16.39,16.38s-8.19,16.38-16.39,16.38m0-98.3H475.14c-8.19,0-16.38-8.19-16.38-16.38s8.19-16.38,16.38-16.38h196.6c8.2,0,16.39,8.19,16.39,16.38s-8.19,16.38-16.39,16.38M538.62,112.64c-2,2-194.56,182.27-194.56,182.27v311.3L213,540.67V294.91L24.57,118.78c-2-2.05-4.1-4.1-6.14-4.1C6.14,102.4,0,86,0,67.59,0,30.72,30.72,0,67.59,0H489.47c36.86,0,67.58,30.72,67.58,67.59a65,65,0,0,1-18.43,45.05M489.47,36.86H67.59c-16.39,0-30.72,14.34-30.72,30.72,0,8.19,2,16.38,8.19,20.48l2,2.05,182.27,172,12.29,10.24,2,20.48-2,219.14,65.54,32.77V272.38l12.29-10.24,184.32-170,2-2C512,84,514,77.82,514,69.63c6.15-18.43-8.19-32.77-24.57-32.77m-14.34,471h196.6c8.2,0,16.39,8.19,16.39,16.39s-8.19,16.38-16.39,16.38H475.14c-8.19,0-16.38-8.19-16.38-16.38,0-10.24,6.14-16.39,16.38-16.39"/></g></g></svg>