<svg xmlns="http://www.w3.org/2000/svg" viewBox="0 0 17.7 17.54"><defs><style>.cls-1{fill:none;stroke:#ffa42f;stroke-linecap:round;stroke-linejoin:round;stroke-width:1.6px;}</style></defs><title>资源 1</title><g id="图层_2" data-name="图层 2"><g id="图层_1-2" data-name="图层 1"><g id="phone"><path id="Shape" class="cls-1" d="M16.9,12.74v2.4a1.59,1.59,0,0,1-.52,1.19,1.63,1.63,0,0,1-1.24.41,16.14,16.14,0,0,1-7-2.46,15.69,15.69,0,0,1-4.86-4.8A15.71,15.71,0,0,1,.81,2.54a1.59,1.59,0,0,1,.42-1.22A1.63,1.63,0,0,1,2.42.8H4.85A1.61,1.61,0,0,1,6.47,2.18,10.17,10.17,0,0,0,7,4.42a1.59,1.59,0,0,1-.36,1.69l-1,1a12.88,12.88,0,0,0,4.86,4.8l1-1a1.63,1.63,0,0,1,1.71-.36,10.5,10.5,0,0,0,2.27.56A1.61,1.61,0,0,1,16.9,12.74Z"/></g></g></g></svg>