<svg xmlns="http://www.w3.org/2000/svg" viewBox="0 0 419.69 244.4"><defs><style>.cls-1{fill:none;stroke:#fff;stroke-linecap:round;stroke-linejoin:round;stroke-width:16px;}</style></defs><title>h-ico1</title><g id="图层_2" data-name="图层 2"><g id="图层_1-2" data-name="图层 1"><path class="cls-1" d="M37.52,194.9c0,4.12-5.09,7.46-11.36,7.46H19.35C13.08,202.36,8,199,8,194.9v-147c0-4.12,5.08-7.46,11.35-7.46h6.81c6.27,0,11.36,3.34,11.36,7.46Z"/><path class="cls-1" d="M62.5,236.4H61.36c-12.53,0-22.68-6.68-22.7-14.92V22.93C38.66,14.7,48.85,8,61.36,8H62.5C75,8,85.2,14.7,85.2,22.93V221.47c0,8.24-10.17,14.92-22.7,14.92Z"/><path class="cls-1" d="M380.34,221.48c0,8.24-10.17,14.91-22.7,14.92h-1.13c-12.53,0-22.68-6.68-22.7-14.92V22.93C333.8,14.7,344,8,356.51,8h1.13c12.52,0,22.7,6.7,22.7,14.93Z"/><path class="cls-1" d="M411.69,194.9c0,4.12-5.09,7.46-11.35,7.46h-6.81c-6.27,0-11.35-3.34-11.36-7.46v-147c0-4.12,5.09-7.46,11.36-7.46h6.81c6.26,0,11.35,3.34,11.35,7.46Z"/><path d="M440.47,236.4"/><line class="cls-1" x1="109.6" y1="122.2" x2="309.41" y2="122.2"/></g></g></svg>
