<svg xmlns="http://www.w3.org/2000/svg" viewBox="0 0 447.59 342.43"><defs><style>.cls-1{fill:none;stroke:#fff;stroke-linecap:round;stroke-linejoin:round;stroke-width:16px;}</style></defs><title>h-ico3</title><g id="图层_2" data-name="图层 2"><g id="图层_1-2" data-name="图层 1"><path class="cls-1" d="M8,171.34a16.29,16.29,0,0,0,16.5,15.75H423.09c9,0,16.38-7.07,16.5-15.75a16.29,16.29,0,0,0-16.5-15.74H24.5A16.14,16.14,0,0,0,8,171.34Z"/><path class="cls-1" d="M37.49,187.2v37.42c0,44,36.75,80,82,80H328.18c45.17,0,82-35.83,82-80V187.2Z"/><path d="M37.49,205.68"/><path class="cls-1" d="M250.13,45c0-16.81,13.76-37,30.57-37h90.76A30.66,30.66,0,0,1,402,38.57V152.86"/><path class="cls-1" d="M250.6,101.8h38.63c8.51,0,13.33-7.66,8.15-13L280.32,71.36,258.75,49.28c-4.11-4.21-12.2-4.21-16.31,0L220.87,71.36,203.81,88.84c-5.18,5.3-.36,13,8.15,13Z"/><path class="cls-1" d="M138.94,305.4a19.58,19.58,0,1,1-33.91-.68"/><path class="cls-1" d="M339,305.4a19.58,19.58,0,1,1-33.91-.68"/></g></g></svg>
