<svg xmlns="http://www.w3.org/2000/svg" viewBox="0 0 615 820.72"><defs><style>.cls-1{fill:#666;}.cls-2{fill:none;}</style></defs><title>地图</title><g id="图层_2" data-name="图层 2"><g id="图层_1-2" data-name="图层 1"><path class="cls-1" d="M307.2,819.72c-17.92,0-33.28-7.68-43.52-20.48-7.68-10.24-17.92-23-28.16-38.4C153.6,650.76,0,448.52,0,294.92,0,133.64,138.24.52,307.2.52s307.2,133.12,307.2,294.4c0,153.6-153.6,355.84-235.52,463.36-10.24,15.36-20.48,28.16-28.16,38.4-10.24,15.36-25.6,23-43.52,23Zm0-768c-140.8,0-256,110.08-256,243.2,0,138.24,145.92,330.24,225.28,432.64q15.36,23,30.72,38.4h2.56q11.52-15.36,30.72-38.4c79.36-102.4,225.28-297,225.28-432.64C563.2,161.8,448,51.72,307.2,51.72Z"/><rect class="cls-2" x="0.12" width="614.88" height="820.72"/><path class="cls-1" d="M307.2,397.32a115.2,115.2,0,1,1,115.2-115.2,114.72,114.72,0,0,1-115.2,115.2Zm0-179.2c-35.84,0-64,28.16-64,64s28.16,64,64,64,64-28.16,64-64-28.16-64-64-64Z"/></g></g></svg>
