<svg xmlns="http://www.w3.org/2000/svg" viewBox="0 0 1133 1133"><defs><style>.cls-1{fill:#fff;fill-rule:evenodd;}.cls-2{fill:none;stroke:#fff;stroke-miterlimit:10;stroke-width:26px;}</style></defs><title>资源 3</title><g id="图层_2" data-name="图层 2"><g id="图层_1-2" data-name="图层 1"><path class="cls-1" d="M692.12,452.35a218.31,218.31,0,0,1,24.19,1.49C694.58,352.62,586.37,277.42,462.83,277.42c-138.09,0-251.22,94.13-251.22,213.65,0,69,37.63,125.65,100.53,169.59L287,736.24l87.8-44c31.45,6.22,56.65,12.61,88,12.61,7.88,0,15.7-.39,23.46-1a186.63,186.63,0,0,1-7.76-52.63c0-109.76,94.25-198.83,213.59-198.83ZM557,384.24c18.92,0,31.45,12.44,31.45,31.35S576,447,557,447s-37.71-12.61-37.71-31.44,18.89-31.35,37.71-31.35ZM381.22,447c-18.83,0-37.84-12.61-37.84-31.44s19-31.35,37.84-31.35,31.36,12.44,31.36,31.35S400.05,447,381.22,447Z"/><path class="cls-1" d="M921.39,648.15c0-100.43-100.49-182.3-213.38-182.3-119.53,0-213.67,81.87-213.67,182.3,0,100.62,94.14,182.31,213.67,182.31,25,0,50.27-6.32,75.39-12.62l68.9,37.74L833.41,792.8c50.43-37.83,88-88,88-144.65ZM638.75,616.72c-12.52,0-25.15-12.44-25.15-25.13,0-12.52,12.63-25.13,25.15-25.13,19,0,31.44,12.61,31.44,25.13,0,12.69-12.45,25.13-31.44,25.13Zm138.17,0c-12.43,0-25-12.44-25-25.13,0-12.52,12.53-25.13,25-25.13,18.83,0,31.44,12.61,31.44,25.13,0,12.69-12.61,25.13-31.44,25.13Z"/><circle class="cls-2" cx="566.5" cy="566.5" r="553.5"/></g></g></svg>
