<svg xmlns="http://www.w3.org/2000/svg" viewBox="0 0 208.61 219.06"><defs><style>.cls-1{fill:#eaeaea;}.cls-1,.cls-2,.cls-5{stroke:#ffb600;stroke-miterlimit:10;stroke-width:6px;}.cls-2,.cls-3{fill:#fcd703;}.cls-4{fill:#47473b;}.cls-5{fill:none;}.cls-6{fill:#508fff;}</style></defs><title>资源 1</title><g id="图层_2" data-name="图层 2"><g id="图层_1-2" data-name="图层 1"><rect class="cls-1" x="24.42" y="27.86" width="129.05" height="187.9"/><rect class="cls-2" x="3" y="3" width="170.57" height="24.25"/><rect class="cls-3" x="25.67" y="182.43" width="126.22" height="32.16"/><path class="cls-3" d="M27.76,182.84"/><path class="cls-4" d="M31.09,211.67"/><rect class="cls-5" x="67.13" y="150.7" width="41.87" height="64.73"/><rect class="cls-6" x="51.31" y="68.67" width="28.49" height="6.67"/><rect class="cls-6" x="51.31" y="87.99" width="28.49" height="6.67"/><path class="cls-4" d="M51.31,88"/><rect class="cls-6" x="98.09" y="68.67" width="28.49" height="6.67"/><rect class="cls-6" x="98.09" y="87.99" width="28.49" height="6.67"/><path class="cls-4" d="M98.09,88"/><path class="cls-6" d="M150.13,77.26v141.8h58.48V77.26Zm46.09,80.84h-33.7v-6.67h33.7Zm0-19.32h-33.7v-6.67h33.7Zm0-17.42h-33.7V114.7h33.7Zm0-19.32h-33.7V95.38h33.7Zm0,0"/></g></g></svg>