<svg xmlns="http://www.w3.org/2000/svg" viewBox="0 0 226.4 221.23"><defs><style>.cls-1{fill:#f9c235;}.cls-2{fill:#007cc1;}</style></defs><title>资源 b</title><g id="图层_2" data-name="图层 2"><g id="图层_1-2" data-name="图层 1"><path class="cls-1" d="M68.77,186.23h-54a14.74,14.74,0,0,0,0,29.48h91.62A108.09,108.09,0,0,1,68.77,186.23Z"/><path class="cls-1" d="M14.74,142.6a14.75,14.75,0,0,0,0,29.49H58.68A137.44,137.44,0,0,1,45.06,142.6Z"/><path class="cls-1" d="M14.74,99A14.74,14.74,0,0,0,0,113.73H0a14.74,14.74,0,0,0,14.74,14.74H43V99Z"/><path class="cls-1" d="M14.74,55.36A14.74,14.74,0,0,0,0,70.1H0A14.74,14.74,0,0,0,14.74,84.85H43V55.36Z"/><path class="cls-2" d="M142,0S114.6,32.91,57.6,32.91V133.5s15,71,84.4,87.73c69.37-16.69,84.4-87.73,84.4-87.73V32.9C169.39,32.9,142,0,142,0Zm34.2,130.21a6,6,0,1,1,0,12.06H150v15.87a8,8,0,0,1-16,0V142.27H107.79a6,6,0,0,1,0-12.06H134V115.49H107.79a6,6,0,0,1-.26-12.06h21.7l-25.6-36.57a7.69,7.69,0,0,1,13.11-8h0L141.28,95h1.44l24.54-36.2a7.69,7.69,0,1,1,13.11,8l-25.61,36.57H176.2a6,6,0,0,1,0,12.06H150v14.72Z"/></g></g></svg>