<svg xmlns="http://www.w3.org/2000/svg" xmlns:xlink="http://www.w3.org/1999/xlink" viewBox="0 0 992.03 819.22"><defs><style>.cls-1{fill:none;}.cls-2{clip-path:url(#clip-path);}.cls-3{fill:#333;}</style><clipPath id="clip-path" transform="translate(0 -0.5)"><rect class="cls-1" width="992.88" height="820.72"/></clipPath></defs><title>call</title><g id="图层_2" data-name="图层 2"><g id="图层_1-2" data-name="图层 1"><g class="cls-2"><path class="cls-3" d="M992,713.76v18.08c-.41.66-1.16,1.29-1.2,2-1.38,23.54-12.71,42.54-27.64,59.73-16.47,19-38.71,25.9-62.61,25.9q-390.69.46-781.4.14c-11.09,0-22.23-.5-33.31-1.29-22.15-1.58-40.35-9.61-54.56-28.22C7,758.3-.29,724.31,13.07,686.5a641.3,641.3,0,0,1,54-116.25c22-36.84,48.46-70.37,78-101.45,9.84-10.33,20.91-19.53,31.52-29.13a463.88,463.88,0,0,1,65-48.41A492.26,492.26,0,0,1,342.36,343c23.47-8.14,47.36-15,72.09-18.08,23.76-2.92,47.56-5.68,71.42-7.54,11-.85,22.21.39,33.3,1.14,15.05,1,30.09,2.27,45.08,3.88,26.05,2.75,51.36,9,76.38,16.65a505.07,505.07,0,0,1,111.23,49.09,481.33,481.33,0,0,1,92.73,70.59,631.77,631.77,0,0,1,49.27,54.63,473.18,473.18,0,0,1,39.44,56.48c13.52,23,25.3,47.2,36.45,71.51,7.05,15.4,11.87,31.87,17,48.07,2.54,7.86,3.54,16.21,5.23,24.32m-526.1,42.63C377.39,738.07,312.1,655.48,323.18,564.31c10-81.92,78-147.86,162.39-153.79,49.86-3.52,94.23,12.75,130.54,47.22,34.28,32.53,52.38,73.63,53.91,120.74,1.41,43-12.75,81.26-40.22,114.66s-62.17,53.74-104,63.29h7.07q169.54,0,339,.08a187,187,0,0,1,22.31,1.54c6.46.8,13,.3,17.73-3.87A49.2,49.2,0,0,0,928.8,721c.93-10.24-4.7-18.6-7.57-27.8A447.76,447.76,0,0,0,874.3,590.62c-20.23-32.73-43.44-63.21-72.14-89.13-16.07-14.48-32.51-28.66-49.65-41.85-29.71-22.9-62.78-40.49-97.6-54.25-27.12-10.73-55.08-19.8-84.27-23.57-22.68-2.93-45.41-5.5-68.19-7.5-8.22-.72-16.64.41-24.92,1.16-17.53,1.57-35.35,1.94-52.47,5.57a619.26,619.26,0,0,0-69.75,19.25c-29.63,10-57.3,24.62-83.73,41.41A461.39,461.39,0,0,0,212,486.91c-21.61,19.26-42.17,39.58-59.18,62.88-16.38,22.43-31.53,45.84-45.82,69.66a375.29,375.29,0,0,0-39.15,90.82c-2.13,7.51-3.81,15.5.76,22.81,3.46,5.53,7.45,10.72,11.32,16,7.33,10,16.48,13.73,29,10.21a84.79,84.79,0,0,1,22.64-2.7q163.72-.25,327.42-.12ZM612.27,589.24c0-3.87.79-9.38-.13-14.6-5.17-29.18-17.71-54.25-41.06-73.39-28-23-59.95-31.93-95.38-26.17-31,5-56.84,19.76-76.13,45.21-14.64,19.31-20.5,41.64-20.67,65.16-.07,11.78,2.69,24,6.37,35.29,11.63,35.86,36.17,59.95,71.24,73.28,24.84,9.45,50.38,9.12,75.68,2.76,23-5.77,42.85-17.68,57.59-36.39,15.89-20.25,23.57-43.66,22.5-71.15" transform="translate(0 -0.5)"/><path class="cls-3" d="M0,295.25V219c4.25-11.52,9.85-22.39,18.78-30.89,12.5-11.91,25.32-23.51,38.48-34.67C86,129.1,117.7,108.92,150.71,90.93c28.55-15.5,58.54-27.9,89-39.14,35-12.92,69.9-25.65,106.37-33.39,23.49-5,47.23-8.85,71-12.34,17.41-2.59,35-4.77,52.56-5.08C505.36.35,541.14-.5,576.72,4.59,593.25,7,610,8.12,626.34,11.33c37.77,7.45,74.92,17,111.15,30.52C776.95,56.58,816.86,70.18,853,92.23c19.58,12,39,24.34,57.79,37.46,14.21,9.87,27.69,20.87,41,31.94a216.44,216.44,0,0,1,22,21.37c9.27,10.25,14.77,22.68,18.17,36v76.21c-.47,3-.79,6.07-1.41,9-4.24,20.46-11.28,39.82-24.74,56.06-13.18,15.9-29.2,26.83-51.16,26.69-40.46-.29-80.93,0-121.42-.21-4.51,0-9.64-.59-13.42-2.76-11.46-6.59-22.56-13.82-33.44-21.33-5.17-3.53-10.68-7.45-13.94-12.55-10.34-16.05-13.85-34.41-14.21-53.17-.52-26.45-.13-53-.13-79.4,0-4.11-.17-8.33-4.72-10-14.59-5.37-29.09-11.08-43.92-15.6-28-8.53-56.22-16.21-85.41-19.56-18.29-2.1-36.54-5.62-54.87-6.09-35.65-.93-71.41-1.55-106.79,4.84-18.08,3.27-36.45,5.06-54,9.91-27.13,7.48-53.5,17.38-80.45,25.41-7,2.07-7.67,5.71-7.75,11.48-.3,29.84,0,59.7-1.64,89.47-.7,12.31-4.87,24.75-9.33,36.42-5.17,13.58-17.6,21.35-28.29,30.45-11.52,9.78-24.54,12.91-39.41,12.77-37.86-.48-75.75-.08-113.67-.27a47.23,47.23,0,0,1-13.62-2.33c-28.53-8.85-46.9-29.71-61.07-54.37-6-10.59-8.83-23.2-13.14-34.9m854.64,28.42c19.59,0,39.18-.11,58.77.11,3.8,0,5.8-1.29,7.39-4.54a79.77,79.77,0,0,0,7.86-33.59c.3-17.42-.37-34.87.26-52.29.34-9.13-1.45-15.31-9.73-21.08-24.4-17-47.51-35.91-71.84-53-20.32-14.3-41.44-27.5-62.64-40.5-13.65-8.45-27.46-17-42.25-22.9-40.7-16.2-82.49-29.3-126-35.63-28-4.08-56.19-8.51-84.44-10-32.63-1.71-65.49-1.47-98,3.5-24.2,3.7-48.58,6.56-72.4,12-41.34,9.35-81.38,22.93-119.32,42.1-22.23,11.24-44.51,22.48-66,35.11-22.29,13.14-44,27.38-65.23,42.2-15.4,10.77-29.71,23.16-44.22,35.12a11.14,11.14,0,0,0-3.43,7.62c-.29,19.16-.17,38.32-.12,57.48a11.28,11.28,0,0,0,.8,4.95c4.83,9.77,10,19.37,14.75,29.16,1.8,3.65,4.34,4.39,8.18,4.38,37.46-.15,74.92-.08,112.38-.09,7.67,0,21.38-11,22.64-18.66a96.25,96.25,0,0,0,1.38-15.2c.13-25.61,0-51.23.09-76.84a52.47,52.47,0,0,1,.68-7c2.17-15.5,9-29,19.15-40.59,5.17-6,11.3-12.48,18.38-15.5,18.92-8,38.4-14.94,58-21.17,27.12-8.59,54.56-15.82,82.81-19.55,20.34-2.67,40.66-6.76,61.07-7.36,36.72-1.11,73.63-1.9,110,4.82,21.34,3.88,42.94,6.85,63.89,12.28,24.54,6.37,48.66,14.66,72.74,22.8A135.23,135.23,0,0,1,739,154.68c24.21,15.2,36.46,37.46,36.17,66.37-.22,22,.44,43.92-.21,65.88-.43,14.61,7.32,24.84,16,34.88,1.2,1.41,4.2,1.77,6.37,1.8,19.11.13,38.24.06,57.39.06" transform="translate(0 -0.5)"/></g><g class="cls-2"><path class="cls-3" d="M854.64,323.66q-28.73,0-57.47-.06c-2.17,0-5.16-.39-6.37-1.8-8.63-10-16.38-20.27-16-34.87.65-22,0-43.92.21-65.88.31-28.95-11.95-51.16-36.17-66.37a135.23,135.23,0,0,0-28.65-12.92c-24.08-8.14-48.17-16.43-72.74-22.8-20.95-5.44-42.55-8.36-63.89-12.28-36.44-6.72-73.3-5.93-110-4.82-20.41.61-40.73,4.69-61.07,7.36-28.25,3.73-55.74,11-82.81,19.55-19.62,6.23-39.1,13.13-58,21.17-7.08,3-13.16,9.46-18.38,15.5-10.05,11.63-17,25.07-19.14,40.59a52.46,52.46,0,0,0-.68,7q0,38.43-.09,76.84A96.8,96.8,0,0,1,222.09,305c-1.29,7.62-15,18.66-22.64,18.66q-56.19,0-112.38.09c-3.87,0-6.38-.72-8.18-4.38C74.12,309.63,69,300,64.15,290.26a11.31,11.31,0,0,1-.8-4.95c0-19.16-.17-38.33.12-57.48a11.15,11.15,0,0,1,3.44-7.57c14.48-12,28.81-24.39,44.19-35.16,21.22-14.82,42.94-29.06,65.23-42.2,21.46-12.63,43.74-23.87,66-35.11,37.94-19.17,78.05-32.75,119.39-42.1,23.82-5.4,48.21-8.27,72.4-12,32.52-5,65.38-5.17,98-3.5,28.25,1.47,56.39,5.9,84.44,10,43.52,6.33,85.25,19.38,126,35.63,14.73,5.89,28.54,14.45,42.19,22.85,21.2,13,42.32,26.2,62.64,40.49,24.34,17.13,47.44,36,71.84,53,8.28,5.77,10.06,12,9.73,21.08-.63,17.41,0,34.88-.26,52.29a79.79,79.79,0,0,1-7.86,33.59c-1.59,3.28-3.59,4.58-7.39,4.53-19.56-.16-39.18-.05-58.77-.05" transform="translate(0 -0.5)"/></g></g></g></svg>