<svg xmlns="http://www.w3.org/2000/svg" viewBox="0 0 122.33 100.81"><defs><style>.cls-1{fill:#e9ab00;stroke:#e9ab00;stroke-width:2px;}.cls-1,.cls-3{stroke-miterlimit:10;}.cls-2{fill:#fddc07;}.cls-3,.cls-5{fill:#fff;}.cls-3{stroke:#1f84ff;}.cls-4{fill:#5a95f6;}</style></defs><title>资源 2</title><g id="图层_2" data-name="图层 2"><g id="图层_1-2" data-name="图层 1"><path class="cls-1" d="M61.7,87.74c-10.94,0-21.88.1-32.81-.06-3.31-.05-4.69,1-4.45,4.37.31,4.35-2.46,6.61-6.21,7.37a21.11,21.11,0,0,1-8,0c-3.45-.66-5.87-2.82-5.87-6.75C4.32,82,4,71.36,4.56,60.74c.24-4.36,2.38-8.68,4-12.88,2.24-5.8,2.38-5.74-3.11-8.55C.84,37-.24,34.54,2.45,31.07c1.11-1.44,3.65-2.85,5.3-2.62,7.69,1.1,10.34-3,11.9-9.6C23.09,4.35,27.71.68,44.25,1,57.17,1.29,70.1,1,83,1.1c10.69.07,15.44,3.64,18.69,13.75a81.33,81.33,0,0,0,3.44,10c.67,1.41,2.6,2.59,4.2,3.09,1.83.56,3.94.27,5.92.3,3.33.06,5.11,1.7,5.88,5s-1.2,4.61-3.57,5.85c-5.91,3.1-6.11,3.21-3.41,9a44.55,44.55,0,0,1,4.17,21c-.3,7.65-.15,15.33,0,23,0,3.48-1.46,6.12-4.69,6.64a30.62,30.62,0,0,1-10.76-.14c-3.35-.69-5.06-3.55-4.76-7.13.26-3-1.12-3.9-4-3.86C83.28,87.81,72.49,87.74,61.7,87.74Zm38.67-2c0,1.83,0,3.23,0,4.63.16,5,2.53,7.12,8,7,5.26-.09,7.54-2.13,7.58-7,0-6.82-.24-13.65.08-20.45a45,45,0,0,0-4.61-21.81c-3.06-6.46-2.27-7.94,4.33-11.13,1.22-.6,1.91-2.29,2.85-3.48-1.35-1-2.58-2.53-4.07-2.85-2.31-.49-4.86.17-7.19-.28a5.89,5.89,0,0,1-3.86-2.72c-1.72-4-2.92-8.28-4.3-12.45C96.42,7,92.33,3.53,83.7,3.4Q61.34,3.07,39,3.41c-9,.15-13,3.74-15.7,12.63-.65,2.17-1.47,4.28-2.19,6.43-2.68,8-2.67,8-11.23,8.11-1.13,0-2.46-.2-3.33.32a5.25,5.25,0,0,0-2.43,3c-.17.84,1,2,1.74,2.92.22.29.78.3,1.16.48,6.47,3,6.89,4.42,4,11.19C9.53,52,7.64,55.59,7.38,59.27c-.7,10-.7,20.11-.84,30.17-.08,5.82,2.23,8,7.92,8s7.56-1.94,7.72-7.68c0-1.24.18-2.48.3-4Z"/><path class="cls-2" d="M100.37,85.77H22.48c-.12,1.5-.27,2.74-.3,4-.16,5.74-2.06,7.64-7.72,7.68s-8-2.17-7.92-8c.14-10.06.14-20.15.84-30.17C7.64,55.59,9.53,52,11,48.46c2.86-6.77,2.44-8.2-4-11.19-.38-.18-.94-.19-1.16-.48-.7-.93-1.91-2.08-1.74-2.92a5.25,5.25,0,0,1,2.43-3c.87-.52,2.2-.3,3.33-.32,8.56-.13,8.55-.12,11.23-8.11.72-2.15,1.54-4.26,2.19-6.43C25.91,7.15,30,3.56,39,3.41Q61.33,3,83.7,3.4C92.33,3.53,96.42,7,99.18,15.28c1.38,4.17,2.58,8.43,4.3,12.45a5.89,5.89,0,0,0,3.86,2.72c2.33.45,4.88-.21,7.19.28,1.49.32,2.72,1.86,4.07,2.85-.94,1.19-1.63,2.88-2.85,3.48-6.6,3.19-7.39,4.67-4.33,11.13A45,45,0,0,1,116,70c-.32,6.8,0,13.63-.08,20.45,0,4.85-2.32,6.89-7.58,7-5.46.09-7.83-2-8-7C100.34,89,100.37,87.6,100.37,85.77Zm-38.64-46c9.79,0,19.58.08,29.37,0,6.76-.09,10-3.2,9.07-9.77-.66-4.65-3-9-4.51-13.58C94.74,13.68,92.93,13,90.13,13c-16.6.13-33.2.07-49.8.07-13.28,0-13.28,0-17.44,12.8-2.88,8.86.62,13.84,9.89,13.9C42.43,39.85,52.08,39.8,61.73,39.8ZM61.4,60.06c-3.39,0-6.79,0-10.19,0-3.64,0-5,1.87-5,5.33s1.29,5.42,4.91,5.43c6.8,0,13.59,0,20.39,0,3.66,0,4.82-2.17,4.79-5.55,0-3.54-1.62-5.24-5.14-5.21C67.91,60.07,64.66,60.05,61.4,60.06Zm44.88,5.59a10.2,10.2,0,0,0-9.71-10.34,10,10,0,0,0-10.39,10,10.05,10.05,0,1,0,20.1.29Zm-69.92-.17a10,10,0,1,0-20.07,0A10.32,10.32,0,0,0,26.58,75.73,10.17,10.17,0,0,0,36.36,65.48Z"/><path class="cls-3" d="M61.4,60.05c3.26,0,6.51,0,9.77,0,3.52,0,5.12,1.67,5.14,5.21,0,3.38-1.13,5.53-4.79,5.55-6.8,0-13.59,0-20.39,0-3.62,0-4.92-2-4.91-5.43s1.35-5.37,5-5.33C54.61,60.09,58,60.06,61.4,60.05Zm-.49,8.62c3.25,0,6.49,0,9.74,0,2.15,0,3.62-.55,3.63-3s-1-3.7-3.55-3.69c-6.36,0-12.72-.16-19.06.16-1.19.07-3.43,1.61-3.43,3.21s2.12,3,3.37,3.15C54.65,69,57.8,68.67,60.91,68.67Z"/><path class="cls-3" d="M106.28,65.65a10.05,10.05,0,1,1-20.1-.29,10,10,0,0,1,10.39-10A10.2,10.2,0,0,1,106.28,65.65ZM96.09,73a7.59,7.59,0,0,0,7.76-7.31,7.82,7.82,0,0,0-7.77-7.84,8,8,0,0,0-7.61,7.64A7.77,7.77,0,0,0,96.09,73Z"/><path class="cls-3" d="M36.36,65.48a10.17,10.17,0,0,1-9.78,10.25A10.32,10.32,0,0,1,16.29,65.51a10,10,0,1,1,20.07,0ZM26.36,73A7.57,7.57,0,0,0,34,65.55a7.63,7.63,0,1,0-15.25.06A7.6,7.6,0,0,0,26.36,73Z"/><path class="cls-4" d="M60.8,35.84c-9.21,0-18.41,0-27.62,0-5.4,0-7.78-2.39-6.43-7.11a50.88,50.88,0,0,1,4.52-10c.41-.76,2.18-1.29,3.33-1.29q26.42-.12,52.83,0c1.15,0,2.94.57,3.34,1.34A54.25,54.25,0,0,1,95.36,29.5c1.06,4.12-1.39,6.32-6.15,6.33Q75,35.86,60.8,35.84Z"/><path class="cls-5" d="M60.91,68.67c-3.11,0-6.26.31-9.3-.15-1.25-.19-2.94-1.43-2.94-3a3.91,3.91,0,0,1,3-3.37C58,61.84,64.37,62,70.73,62c2.53,0,3.55,1.33,3.55,3.69s-1.48,3-3.63,3C67.4,68.62,64.16,68.67,60.91,68.67Z"/><path class="cls-5" d="M96.09,73a7.77,7.77,0,0,1-7.62-7.51,8,8,0,0,1,7.61-7.64,7.82,7.82,0,0,1,7.77,7.84A7.59,7.59,0,0,1,96.09,73Z"/><path class="cls-5" d="M26.36,73a7.6,7.6,0,0,1-7.65-7.39A7.63,7.63,0,1,1,34,65.55,7.57,7.57,0,0,1,26.36,73Z"/></g></g></svg>