<svg xmlns="http://www.w3.org/2000/svg" viewBox="0 0 250.74 250.5"><defs><style>.cls-1{fill:#f9c235;}.cls-2,.cls-3{fill:#fff;}.cls-3{opacity:0.1;}.cls-4{fill:#5597fe;}.cls-5{fill:#5696fe;}</style></defs><title>资源 a</title><g id="图层_2" data-name="图层 2"><g id="图层_1-2" data-name="图层 1"><circle class="cls-1" cx="125.25" cy="125.25" r="125.25"/><path class="cls-2" d="M157.08,189.27l.21-.3-11-6.78c.68-1.1,1.71-2.2,5.19-5.85,6.78-7.1,19.4-20.33,27.26-33,11.63-18.75,21.94-45.53,5-66.66-5-6.23-16.37-12.22-28.48-11.59-7.1.36-17.19,3.31-24.89,15.27l-10.83-7a46.81,46.81,0,0,1,16.2-15.73,42.18,42.18,0,0,1,18.86-5.44,50.28,50.28,0,0,1,22.68,4.29,43.83,43.83,0,0,1,16.52,12.12c9.8,12.25,13.48,26.89,10.93,43.5-1.84,12.06-6.92,24.84-15.08,38-8.57,13.82-21.79,27.67-28.89,35.12C159.26,186.89,157.47,188.77,157.08,189.27Z"/><path class="cls-3" d="M68.33,14.56S1.56,230.36,232.92,189.27c0,0,48.86-74.81-15.24-148.53,0,0-51.18-58.38-129.79-35.07C87.89,5.67,70.38,13.9,68.33,14.56Z"/><circle class="cls-2" cx="139.85" cy="194.15" r="19.22" transform="translate(-63.65 68.3) rotate(-22.5)"/><path class="cls-1" d="M139.85,185a9.16,9.16,0,1,0,9.16,9.16A9.17,9.17,0,0,0,139.85,185Z"/><path class="cls-2" d="M60.77,151.93c-8.17-13.16-13.24-25.94-15.08-38-2.55-16.62,1.13-31.26,10.93-43.51A43.89,43.89,0,0,1,73.13,58.31,50.51,50.51,0,0,1,95.82,54a42.18,42.18,0,0,1,18.86,5.44,46.75,46.75,0,0,1,16.2,15.74l-10.83,7c-7.7-12-17.79-14.91-24.89-15.28-12.11-.63-23.5,5.36-28.48,11.59-16.91,21.13-6.59,47.91,5,66.66Z"/><path class="cls-2" d="M74.69,180.91a8,8,0,0,1-1.29-.11,7.41,7.41,0,0,1-4.82-3.05L57.81,162.46a7.46,7.46,0,0,1,1.79-10.38l12.75-9a7.45,7.45,0,0,1,10.38,1.8l10.78,15.29a7.47,7.47,0,0,1-1.8,10.38l-12.75,9A7.42,7.42,0,0,1,74.69,180.91Z"/><rect class="cls-1" x="70.48" y="154.59" width="10.36" height="13.48" transform="translate(-79.11 73.02) rotate(-35.17)"/><path class="cls-2" d="M119.76,81.81,117,78.18a1.57,1.57,0,0,1,.24-2.18l6.73-5.57a1.58,1.58,0,0,1,2.18.16l5.47,6a1.6,1.6,0,0,1,.13,2l-2.13,3.07A6.14,6.14,0,0,1,119.76,81.81Z"/><path class="cls-4" d="M151.62,143.33a6.5,6.5,0,0,1-3.14-.81l-2.5-1.4c-7.44-4.16-14.48-6.46-20.37-6.67-8.14-.28-16.08,3.27-20.1,5.41l-3.19,1.71a6.44,6.44,0,1,1-6.07-11.37l3.19-1.7c6.3-3.37,16-7.29,26.62-6.92,8,.28,16.85,3.07,26.21,8.29l2.5,1.4a6.44,6.44,0,0,1-3.15,12.06Z"/><path class="cls-5" d="M140.06,161.67a6.4,6.4,0,0,1-3.14-.82c-8.83-4.93-13.68-5-22.54-.25a6.44,6.44,0,1,1-6.07-11.37c12.76-6.81,22.22-6.71,34.9.37a6.44,6.44,0,0,1-3.15,12.07Z"/></g></g></svg>