<svg xmlns="http://www.w3.org/2000/svg" viewBox="0 0 167.06 130"><defs><style>.cls-1{fill:#a0d3f8;}.cls-2{fill:#108ee9;}.cls-3{fill:#fff7d7;}.cls-4{fill:none;}</style></defs><title>资源 1</title><g id="图层_2" data-name="图层 2"><g id="图层_1-2" data-name="图层 1"><path class="cls-1" d="M116.33,3V50.52l4.75-6.66a1.49,1.49,0,0,1,1.21-.63,1.45,1.45,0,0,1,1.21.63l4.75,6.66V3Zm0,0"/><path class="cls-2" d="M164.06,28.34h-8.95V10.44s0,0,0-.06a2.84,2.84,0,0,0-.13-.69,1.74,1.74,0,0,0-.11-.45,3.59,3.59,0,0,0-.3-.45,3.15,3.15,0,0,0-.33-.49c-.09-.09-.24-.15-.36-.24a3.68,3.68,0,0,0-.63-.41l0,0A94.24,94.24,0,0,0,131.25,2.8V1.49A1.5,1.5,0,0,0,129.76,0H114.84a1.5,1.5,0,0,0-1.49,1.49V2.72A65.93,65.93,0,0,0,83.54,12.85C53.06-7,15.46,7,13.85,7.66l0,0a2.52,2.52,0,0,0-.6.39c-.11.09-.26.15-.37.24a2.21,2.21,0,0,0-.34.49,2,2,0,0,0-.32.47,3.76,3.76,0,0,0-.11.45,2.85,2.85,0,0,0-.13.69s0,0,0,.06v17.9H3a3,3,0,0,0-3,3v95.45a3,3,0,0,0,3,3H164.06a3,3,0,0,0,3-3V31.32a3,3,0,0,0-3-3Z"/><path class="cls-3" d="M6,123.79V34.3h6v77.56a1.29,1.29,0,0,0,.06.26,1.19,1.19,0,0,0,0,.26,2.26,2.26,0,0,0,.13.32,2.87,2.87,0,0,0,.22.56,2.74,2.74,0,0,0,.3.45,2.91,2.91,0,0,0,.41.41,3.76,3.76,0,0,0,.45.3,4.5,4.5,0,0,0,.52.24,3,3,0,0,0,.58.11,2.21,2.21,0,0,0,.33.07,1.26,1.26,0,0,0,.26-.06,1.19,1.19,0,0,0,.26,0c.47-.09,45.83-7.85,63.95,9H6Z"/><path class="cls-3" d="M80.54,117.06c-18.27-13.37-51.72-10.16-62.64-8.67V12.58C25.75,10.09,56.23,2,80.54,18Z"/><path class="cls-2" d="M116.33,8.11V3h11.93V50.52l-4.75-6.66a1.49,1.49,0,0,0-1.21-.63,1.45,1.45,0,0,0-1.21.63l-4.75,6.66Z"/><path class="cls-3" d="M86.5,18a59.72,59.72,0,0,1,26.85-9.3V55.18a1.46,1.46,0,0,0,1,1.42,1.48,1.48,0,0,0,1.68-.56l6.25-8.74L128.56,56a1.52,1.52,0,0,0,1.21.63,1.25,1.25,0,0,0,.45-.07,1.5,1.5,0,0,0,1-1.42V8.82a93.89,93.89,0,0,1,17.9,3.77v95.81c-10.92-1.49-44.37-4.7-62.64,8.65V18Z"/><path class="cls-3" d="M161.08,123.79H87.68c18.08-16.82,63.46-9.08,63.95-9,.09,0,.17,0,.26,0s.17.06.26.06a2.12,2.12,0,0,0,.34-.07,2.85,2.85,0,0,0,.58-.11,2.56,2.56,0,0,0,.52-.22,2.6,2.6,0,0,0,.47-.32,2.72,2.72,0,0,0,.39-.41,4.07,4.07,0,0,0,.32-.47,2.46,2.46,0,0,0,.22-.56c0-.11.09-.21.13-.32s0-.17,0-.26.06-.17.06-.26V34.3h6v89.49Z"/><path class="cls-2" d="M161.08,123.79"/><rect class="cls-4" y="0.02" width="167.06" height="129.98"/><path class="cls-2" d="M29.59,23.06A1.49,1.49,0,0,0,30.07,26c.3,0,30.2-4.81,40.42,6.32a1.49,1.49,0,0,0,2.11.09,1.48,1.48,0,0,0,.09-2.11C61.37,18,30.87,22.86,29.59,23.06Zm0,11.93a1.49,1.49,0,0,0,.48,2.95c.3,0,30.2-4.81,40.42,6.32a1.49,1.49,0,0,0,2.11.09,1.48,1.48,0,0,0,.09-2.11C61.37,29.92,30.87,34.79,29.59,35Zm0,0"/></g></g></svg>