<svg xmlns="http://www.w3.org/2000/svg" viewBox="0 0 219 219"><defs><style>.cls-1{fill:#f7d7ff;}.cls-2{fill:#330867;}.cls-3{fill:#f0befc;}.cls-4{fill:#66c1ff;}.cls-5{fill:#fc6b79;}.cls-6{fill:#ffe08a;}</style></defs><title>资源 1</title><g id="图层_2" data-name="图层 2"><g id="图层_1-2" data-name="图层 1"><path class="cls-1" d="M5.85,216.07a2.91,2.91,0,0,1-2.93-2.93V5.85A2.91,2.91,0,0,1,5.85,2.93h207.3a2.91,2.91,0,0,1,2.93,2.93v207.3a2.91,2.91,0,0,1-2.93,2.93Zm0,0"/><path class="cls-2" d="M213.15,5.85v207.3H5.85V5.85h207.3m0-5.85H5.85A5.87,5.87,0,0,0,0,5.85v207.3A5.87,5.87,0,0,0,5.85,219h207.3a5.87,5.87,0,0,0,5.85-5.85V5.85A5.87,5.87,0,0,0,213.15,0Zm0,0"/><path class="cls-3" d="M213.15,213.15H5.85V183.79s0,20.71,103.63,20.71,103.63-20.71,103.63-20.71v29.35Zm0,0"/><path class="cls-2" d="M168.1,194.16h-139a2.91,2.91,0,0,1-2.93-2.93V146.93A2.92,2.92,0,0,1,29.13,144c10,0,14.59-6.5,14.59-12.51S39.17,119,29.13,119a2.91,2.91,0,0,1-2.93-2.93V26a2.91,2.91,0,0,1,2.93-2.93H83.54A2.91,2.91,0,0,1,86.47,26c0,6.34,5.49,8,8.74,8S104,32.31,104,26a2.91,2.91,0,0,1,2.93-2.93h77.76A2.91,2.91,0,0,1,187.57,26V160a2.91,2.91,0,0,1-2.93,2.93h-108A2.91,2.91,0,0,1,73.73,160V93.23a2.93,2.93,0,1,1,5.85,0V157H181.75V28.93h-72.2c-1.4,7.18-7.9,10.92-14.34,10.92S82.28,36.11,80.88,28.93H32.05v84.36c11.51,1.23,17.52,9.78,17.52,18.2s-6,17-17.52,18.2v38.62h136a2.93,2.93,0,0,1,0,5.85Zm0,0"/><path class="cls-4" d="M76.2,103.5A10.27,10.27,0,1,1,86.47,93.23,10.29,10.29,0,0,1,76.2,103.5Zm0,0"/><path class="cls-2" d="M76.2,85.85a7.35,7.35,0,1,1-7.35,7.35,7.34,7.34,0,0,1,7.35-7.35m0-5.85a13.2,13.2,0,1,0,13.2,13.2A13.21,13.21,0,0,0,76.2,80Zm0,0"/><path class="cls-2" d="M136.89,162.89A2.91,2.91,0,0,1,134,160V126.78a13.25,13.25,0,0,1,0-26.2v-33a2.93,2.93,0,0,1,5.85,0v35.66a2.91,2.91,0,0,1-2.93,2.93c-5.75,0-8.32,3.77-8.32,7.48s2.57,7.48,8.32,7.48a2.91,2.91,0,0,1,2.93,2.93V160a2.91,2.91,0,0,1-2.93,2.93Zm0,0"/><path class="cls-5" d="M136.89,76.52a10.27,10.27,0,1,1,10.27-10.27,10.29,10.29,0,0,1-10.27,10.27Zm0,0"/><path class="cls-2" d="M136.89,58.87a7.35,7.35,0,1,1-7.35,7.35,7.34,7.34,0,0,1,7.35-7.35m0-5.85a13.2,13.2,0,1,0,13.2,13.2A13.21,13.21,0,0,0,136.89,53Zm0,0"/><path class="cls-6" d="M164.16,201.54a10.27,10.27,0,1,1,10.27-10.27,10.29,10.29,0,0,1-10.27,10.27Zm0,0"/><path class="cls-2" d="M164.16,183.89a7.35,7.35,0,1,1-7.35,7.35,7.34,7.34,0,0,1,7.35-7.35m0-5.85a13.2,13.2,0,1,0,13.2,13.2,13.21,13.21,0,0,0-13.2-13.2Zm0,0"/></g></g></svg>