<svg xmlns="http://www.w3.org/2000/svg" viewBox="0 0 314.36 197.58"><defs><style>.cls-1{fill:#6e8df9;stroke:#2a65db;stroke-width:4px;}.cls-1,.cls-2,.cls-3{stroke-miterlimit:10;}.cls-2{fill:none;}.cls-2,.cls-3{stroke:#e3a2f2;stroke-width:8.57px;}.cls-3{fill:#fff;}</style></defs><title>资源 1</title><g id="图层_2" data-name="图层 2"><g id="图层_1-2" data-name="图层 1"><path class="cls-1" d="M164.61,159.71c6.79,0,12.33-4.35,12.33-9.67V11.67C176.58,6.35,171.22,2,164.43,2H14.33C7.54,2,2,6.35,2,11.67V150c0,5.33,5.54,9.67,12.33,9.67Z"/><path class="cls-2" d="M253.24,42.38H220.76a7.8,7.8,0,0,0-7.83,7.83V86.6a7.8,7.8,0,0,0,7.83,7.83h57.85a8,8,0,0,0,7-4.2,7.54,7.54,0,0,0-.58-8L259.62,45.72A7.47,7.47,0,0,0,253.24,42.38Z"/><path class="cls-2" d="M308.19,82.23l-40-56.84a9.35,9.35,0,0,0-7.54-3.91H203.07a9.34,9.34,0,0,0-9.28,9.28V153.13a9.34,9.34,0,0,0,9.28,9.28h17.25a31.47,31.47,0,0,0,62.93,0H300.8a9.34,9.34,0,0,0,9.28-9.28V87.6a10.43,10.43,0,0,0-1.88-5.36Z"/><circle class="cls-2" cx="251.9" cy="162.32" r="29.52"/><circle class="cls-3" cx="100" cy="163.26" r="30.04"/></g></g></svg>