<svg xmlns="http://www.w3.org/2000/svg" viewBox="0 0 238.04 222"><defs><style>.cls-1,.cls-2,.cls-4{fill:none;stroke-linecap:round;stroke-linejoin:round;}.cls-1,.cls-2{stroke:#42a5f5;}.cls-1,.cls-4{stroke-width:6px;}.cls-2{stroke-width:4px;}.cls-3{fill:#f7bd2b;}.cls-4{stroke:#fff;}</style></defs><title>资源 1</title><g id="图层_2" data-name="图层 2"><g id="图层_1-2" data-name="图层 1"><path class="cls-1" d="M59.73,106.72S68.6,54.42,3,46.44c0,0,1.77,56.73,33.69,60.28"/><path class="cls-2" d="M27.82,80.12s19.5,10.64,21.28,26.59"/><path class="cls-1" d="M59.73,110.26s-3.55-56.73,49.64-56.73S159,112,159,112Z"/><path class="cls-2" d="M79.24,106.72S88.1,78.35,111.15,81.9s28.37,17.73,30.14,26.59S79.24,106.72,79.24,106.72Z"/><path class="cls-1" d="M34.91,55.3s21.28-44.91,56.74-1.18"/><path class="cls-1" d="M120,54.42S129.77,9.21,167.89,3c0,0,14.18,29.25,6.21,56.73"/><path class="cls-1" d="M154.59,82.78s33.69-53.19,79.78-34.57c0,0,8.86,47.87-38.12,60.28"/><path class="cls-2" d="M176.75,107.61s5.32-35.46,26.59-35.46"/><path class="cls-2" d="M143.06,64.17s-1.77-23,10.64-31"/><path class="cls-3" d="M225.47,104.95a4.39,4.39,0,0,1,4.41,4.47C228.29,166.7,196.14,223.69,123.56,222,42.37,220,18.39,166.51,17.23,109.41a4.4,4.4,0,0,1,4.41-4.46Z"/><path class="cls-4" d="M58,161.68c8.86,16,35.46,40.78,91.6,20.09"/><path class="cls-4" d="M43.19,145.13s-.22-.07,2.07,3.25"/></g></g></svg>