<svg xmlns="http://www.w3.org/2000/svg" viewBox="0 0 232.7 219.47"><defs><style>.cls-1{fill:#99c3ff;}.cls-2{fill:#67cfef;}.cls-3{fill:#fff;}.cls-4{fill:#9a2d2f;}.cls-5,.cls-6{fill:none;stroke:#3369ff;stroke-linecap:round;stroke-linejoin:round;}.cls-5{stroke-width:6px;}.cls-6{stroke-width:4px;}</style></defs><title>资源 1</title><g id="图层_2" data-name="图层 2"><g id="图层_1-2" data-name="图层 1"><polygon class="cls-1" points="189.33 217.16 152.39 217.16 152.39 8.27 189.33 31.82 189.33 217.16"/><path class="cls-2" d="M82.47,31.94l66.9-24.72V217.9H123.5V87.55a2,2,0,0,0-.92-1.67L94,67.42s-.05,0-.1,0l-.08,0s-.07,0-.12,0l-.07,0s-.1,0-.12,0,0,0-.1,0a1,1,0,0,1-.12,0,.15.15,0,0,1-.1,0h-.45l-.12,0a.15.15,0,0,0-.1,0l-.1,0c-.05,0-.07,0-.12,0l-9.75,3.64V31.94Z"/><polygon class="cls-1" points="92.41 70.43 119.96 86.48 119.96 217.05 92.33 217.05 92.41 70.43"/><path class="cls-3" d="M82.65,70.08l3.15-1.16c2.78-4.58,3.92-10.74,14.71-14.49,11.83-4.12,3.82-16.21,8.25-24.27s16.09-2.41,25.95-11.29c3.38-3,4.9-5.91,5.45-8.4L82.65,31.66Z"/><path class="cls-3" d="M82.65,70.08"/><line class="cls-4" x1="193.29" y1="148.63" x2="193.29" y2="142.65"/><path class="cls-4" d="M45.2,14.26"/><line class="cls-5" x1="150.85" y1="7.59" x2="150.85" y2="215.59"/><path class="cls-5" d="M191.32,215.9H80.68v-187L150.93,3l40.39,25.87Zm0,0"/><polygon class="cls-2" points="43.69 90.47 77.36 78.11 81.41 76.61 90.02 73.47 89.94 219.47 43.69 219.47 43.69 90.47"/><line class="cls-5" x1="3" y1="216.09" x2="229.7" y2="216.09"/><path class="cls-6" d="M121.34,215.9H44V87.8L93,69.95,121.34,87.8Zm0,0"/><path class="cls-3" d="M81.69,78.75,48.91,90.94v34.33c5.08-7.34,6.85-18.24,7.39-21.78,1.35-8.75,8.75-6.41,19.59-12.07,7.66-4,10.72-9.78,11.43-14.76l-1.7.64Z"/><line class="cls-6" x1="92.41" y1="71.93" x2="92.41" y2="217.09"/></g></g></svg>