<svg xmlns="http://www.w3.org/2000/svg" viewBox="0 0 159.08 206.13"><defs><style>.cls-1{fill:#0072d8;}.cls-2{fill:#5fa3ed;}.cls-3{fill:#e6e9ed;}</style></defs><title>资源 1</title><g id="图层_2" data-name="图层 2"><g id="图层_1-2" data-name="图层 1"><rect class="cls-1" x="17.28" y="9.93" width="128.49" height="164.26" transform="translate(17.26 -12.78) rotate(10.02)"/><rect class="cls-2" y="28.06" width="135.02" height="178.07" rx="14.16" ry="14.16"/><path class="cls-3" d="M67.95,144.25h-1.6c-1.89-1.31-6.4-4.36-9.31-6.69C46.14,129,40.32,123,39.3,118.22a17.8,17.8,0,0,1-.87-5.23A18.18,18.18,0,0,1,44.1,99.17,15.42,15.42,0,0,1,55,94.52a16.14,16.14,0,0,1,12.94,6.4,16,16,0,0,1,12.8-6.69,16.87,16.87,0,0,1,15.85,17.16,18.22,18.22,0,0,1-.73,4.94C95,120.69,89.18,127.38,78.71,136a108.9,108.9,0,0,1-10,7.56"/></g></g></svg>