<svg id="图层_1" data-name="图层 1" xmlns="http://www.w3.org/2000/svg" xmlns:xlink="http://www.w3.org/1999/xlink" viewBox="0 0 712 712"><defs><style>.cls-1{fill:none;}.cls-2{clip-path:url(#clip-path);}.cls-3{fill:#e6f3ff;}.cls-4{fill:#2398f9;}.cls-5{fill:#b8ddff;}.cls-6{fill:#22d0ff;}</style><clipPath id="clip-path" transform="translate(-158.15 -157.62)"><rect class="cls-1" x="158.27" y="157.62" width="711.88" height="712"/></clipPath></defs><title>s</title><g class="cls-2"><path class="cls-3" d="M158.15,513.62c0,196.61,159.39,356,356,356s356-159.39,356-356-159.39-356-356-356-356,159.39-356,356Zm0,0" transform="translate(-158.15 -157.62)"/></g><path class="cls-4" d="M456.46,473.72H334.71A16.72,16.72,0,0,1,318,457V335.12a16.72,16.72,0,0,1,16.74-16.74H456.46a16.72,16.72,0,0,1,16.74,16.74V456.87a16.74,16.74,0,0,1-16.74,16.85Z" transform="translate(-158.15 -157.62)"/><path class="cls-5" d="M673.07,473.72H551.31A16.72,16.72,0,0,1,534.57,457V335.12a16.72,16.72,0,0,1,16.74-16.74H673.07a16.72,16.72,0,0,1,16.74,16.74V456.87a16.74,16.74,0,0,1-16.74,16.85Z" transform="translate(-158.15 -157.62)"/><path class="cls-6" d="M456.46,688.21H334.71A16.72,16.72,0,0,1,318,671.47V549.72A16.72,16.72,0,0,1,334.71,533H456.46a16.72,16.72,0,0,1,16.74,16.74V671.47a16.72,16.72,0,0,1-16.74,16.74Z" transform="translate(-158.15 -157.62)"/><path class="cls-4" d="M600.86,704.17l-82.24-82.25a16,16,0,0,1,0-22.65L600.86,517a16,16,0,0,1,22.66,0l82.25,82.25a16,16,0,0,1,0,22.65l-82.25,82.25a16,16,0,0,1-22.66,0Z" transform="translate(-158.15 -157.62)"/></svg>
