<svg xmlns="http://www.w3.org/2000/svg" viewBox="0 0 264.44 222"><defs><style>.cls-1{fill:#eff0a9;}.cls-2{fill:#17a6e5;}.cls-3{fill:#7be3ff;}.cls-4,.cls-5,.cls-6,.cls-7{fill:none;}.cls-4,.cls-5,.cls-6{stroke:#17a6e5;stroke-width:6px;}.cls-4,.cls-6,.cls-7{stroke-linecap:round;}.cls-4,.cls-5{stroke-miterlimit:10;}.cls-6,.cls-7{stroke-linejoin:round;}.cls-7{stroke:#7be3ff;stroke-width:4px;}</style></defs><title>资源 1</title><g id="图层_2" data-name="图层 2"><g id="图层_1-2" data-name="图层 1"><rect class="cls-1" x="35.95" y="78.78" width="195.67" height="140.88"/><path class="cls-2" d="M114.53.66,111.89,95.8S100.56,111.68,82,110.07A35.53,35.53,0,0,1,55.27,93.89L69.24.66Zm0,0"/><path class="cls-3" d="M75.45,2l-14,93.09S49,119.39,20.6,108.36,4.42,67.63,4.42,67.63L36.33.72Zm0,0"/><line class="cls-4" x1="230.39" y1="107.85" x2="230.39" y2="216.63"/><path class="cls-2" d="M148.65,1.3l2.65,95.14s11.32,15.88,29.85,14.26a35.53,35.53,0,0,0,26.77-16.18l-14-93.23Zm0,0"/><path class="cls-3" d="M189.61,1.32l14,93.09s12.5,24.26,40.88,13.23,16.18-40.73,16.18-40.73L228.72,0Zm0,0"/><path class="cls-3" d="M154.95,2.49l2.89,94.41s-9.38,15.44-25.84,15-25.41-15-25.41-15l2.6-95.14Zm0,0"/><path class="cls-5" d="M38.1,3.13a5.13,5.13,0,0,0-4.65,3L4.53,67.56a2.05,2.05,0,0,0-.26.78c-2.84,9.82-2.58,30.73,19.1,39.52h0a30.94,30.94,0,0,0,12,2.44c11.23,0,19.1-6.58,23.64-11.75,4.65,5.29,12.67,12,24.16,12.15h.52c11.63,0,20.28-6.32,25-11.12a45.05,45.05,0,0,0,7.76,6.46l.63.37c.52.26.89.63,1.41.89s.78.37,1.15.63l.37.26.78.37c.37.11.78.37,1.15.52l.37.12c.37.11.63.26,1,.37s.52.11.89.26c.63.26,1.29.37,2.07.63a20.84,20.84,0,0,0,5.54.63H132a24.44,24.44,0,0,0,5.28-.63.48.48,0,0,0,.37-.11c.63-.14,1.29-.37,2.07-.63.26-.11.52-.11.78-.26s.63-.26,1-.37l.37-.11a4.09,4.09,0,0,0,1.15-.52l.78-.37.37-.26c.37-.26.78-.37,1.15-.63s.89-.52,1.55-.89l.37-.26A51.37,51.37,0,0,0,155,99.58c4.77,4.65,13.44,11.12,25,11.12h.52c11.37-.11,19.5-6.84,24.16-12.15,4.51,5.29,12.41,11.75,23.64,11.75a31.35,31.35,0,0,0,12-2.44c21.69-8.79,21.94-29.7,19.1-39.52a7.81,7.81,0,0,0-.26-.78L230.48,6.09a5.23,5.23,0,0,0-4.65-3Z"/><line class="cls-5" x1="75.8" y1="5.88" x2="58.93" y2="97.43"/><line class="cls-5" x1="108.91" y1="97.72" x2="111.31" y2="5.15"/><line class="cls-5" x1="153.76" y1="3.56" x2="156.03" y2="98.91"/><line class="cls-5" x1="191.41" y1="4.15" x2="206.85" y2="98.51"/><line class="cls-4" x1="36" y1="110.72" x2="36" y2="216.63"/><line class="cls-4" x1="96.99" y1="142.89" x2="96.99" y2="216.63"/><line class="cls-6" x1="5.9" y1="219" x2="261.44" y2="219"/><line class="cls-7" x1="73.81" y1="154.89" x2="73.81" y2="180.25"/><line class="cls-7" x1="199.38" y1="134.17" x2="150.29" y2="182.59"/><line class="cls-7" x1="201.44" y1="167.44" x2="172.33" y2="196.14"/></g></g></svg>