<svg id="图层_1" data-name="图层 1" xmlns="http://www.w3.org/2000/svg" viewBox="0 0 184.89 217.16"><defs><style>.cls-1{fill:#fcd703;stroke:#ffb600;stroke-miterlimit:10;stroke-width:5.87px;}.cls-2{fill:#fff;}.cls-3{fill:#508fff;}</style></defs><title>党</title><path class="cls-1" d="M804.48,466.49h-174A2.55,2.55,0,0,1,628,464V257.75a2.55,2.55,0,0,1,2.54-2.54H804.45a2.55,2.55,0,0,1,2.54,2.54V464a2.51,2.51,0,0,1-2.52,2.52Zm0,0" transform="translate(-625.04 -252.27)"/><rect class="cls-2" x="15.44" y="11.55" width="7.8" height="193.44"/><path class="cls-3" d="M783.2,348.95c-13.8-46.09-57.92-43.75-57.92-43.75,61.9,30.36,34.11,73.39,34.11,73.39L723.46,341.9l13.73-15-9.38-8.68-7.41,6.68-13.88-.18-28.34,28.75L695.33,369,706,358.72l36.63,35.62c-31,20.41-59.38-13.21-59.38-13.21l-11.18,9.75,8.48,10-1.46,2c-4-.36-5.59,1.46-5.59,1.46-9.75,9.41,2,14.64,2,14.64,11.39,2.52,10.84-9.23,10.84-9.23l2.16-2.7c42.77,23.14,68,2.34,68,2.34l12.27,11.57,16.77-16.82-11-11.93s15-22,8.66-43.18Zm0,0" transform="translate(-625.04 -252.27)"/></svg>
