<svg xmlns="http://www.w3.org/2000/svg" viewBox="0 0 257.93 226.95"><defs><style>.cls-1,.cls-3,.cls-5{fill:none;}.cls-1,.cls-4{stroke:#ffc024;}.cls-1,.cls-2,.cls-3,.cls-4{stroke-miterlimit:10;}.cls-1{stroke-width:6px;}.cls-2{fill:#8dabff;}.cls-2,.cls-5{stroke:#8dabff;}.cls-2,.cls-4,.cls-5{stroke-width:8px;}.cls-3{stroke:#fff;stroke-width:5px;}.cls-4{fill:#ffc024;}.cls-5{stroke-linecap:round;stroke-linejoin:round;}</style></defs><title>资源 1</title><g id="图层_2" data-name="图层 2"><g id="图层_1-2" data-name="图层 1"><rect class="cls-1" x="97.32" y="133.6" width="24.15" height="23.91" rx="6.7" ry="6.7"/><rect class="cls-1" x="67.12" y="103.63" width="24.15" height="23.91" rx="6.7" ry="6.7"/><rect class="cls-1" x="97.32" y="103.63" width="24.15" height="23.91" rx="6.7" ry="6.7"/><rect class="cls-1" x="67.12" y="133.6" width="24.15" height="23.91" rx="6.7" ry="6.7"/><rect class="cls-2" x="127.14" y="147.67" width="117.73" height="58.5" rx="29.25" ry="29.25"/><path class="cls-3" d="M218.94,167.64h-64.6c-2.51,0-4.54-.52-4.54,2s2,2.47,4.54,2.47h64.6c2.51,0,4.54.35,4.54-2.14S221.45,167.64,218.94,167.64Z"/><path class="cls-3" d="M218.94,183.89h-64.6c-2.51,0-4.54-.52-4.54,2s2,2.47,4.54,2.47h64.6c2.51,0,4.54.35,4.54-2.14S221.45,183.89,218.94,183.89Z"/><path class="cls-4" d="M104.17,206l-45.73-.31a6.17,6.17,0,0,1-6.13-6.17l0-87.81a6.17,6.17,0,0,1,2.29-4.79l2.13-1.73,69.37-65.34a6.17,6.17,0,0,1,8.49,0l71.94,68.66s5.81,5.27,29,27.15a6.18,6.18,0,0,0,8.68-.2l7.95-8.24a6.17,6.17,0,0,0-.18-8.75L145.5,17,134.25,5.79a6.17,6.17,0,0,0-8.7,0L114.31,17,6,118.2a6.17,6.17,0,0,0,0,9.06l10.28,9.44a6.17,6.17,0,0,0,8.63-.28h0a6.17,6.17,0,0,1,10.63,4.27v75.43a6.17,6.17,0,0,0,6.17,6.17h66.93A7,7,0,0,0,114,210.73l-.14-.17A12.84,12.84,0,0,0,104.17,206Z"/><line class="cls-5" x1="156.12" y1="206.35" x2="143.14" y2="222.65"/><line class="cls-5" x1="173.93" y1="206.65" x2="143.14" y2="222.96"/></g></g></svg>