<svg xmlns="http://www.w3.org/2000/svg" viewBox="0 0 140.39 111.54"><defs><style>.cls-1{fill:#e9b100;}.cls-2{fill:#5598ff;}.cls-3{fill:#7795f9;}.cls-4{fill:#ffe36a;}</style></defs><title>资源 1</title><g id="图层_2" data-name="图层 2"><g id="图层_1-2" data-name="图层 1"><path class="cls-1" d="M26.44,53c0,4.92,0,9.79,0,14.66a14.62,14.62,0,0,1-.55,4.12A4.34,4.34,0,0,1,20.8,75a4.31,4.31,0,0,1-4.22-4.25c-.18-2.08-.12-4.19-.12-6.29,0-11.2.1-22.4,0-33.6C16.24,15.72,26.07,3.31,40.66.55a29.66,29.66,0,0,1,35,24.39,33.56,33.56,0,0,1,.53,5.36c0,3-2.29,5.47-4.87,5.46s-4.81-2.22-5-5.3c-.71-10.67-6.25-17.74-15.71-20.08-11.73-2.88-24,6.49-24.16,18.55-.06,3.8.05,7.6-.05,11.4-.05,1.82.6,2.45,2.42,2.45q24.6-.08,49.2,0c2.26,0,2.6-1.07,2.65-2.95.15-5.58-.28-11.3.8-16.71C84.26,9.31,96.49,0,110.72.1a29.76,29.76,0,0,1,28.89,23.33,37.79,37.79,0,0,1,.77,6.54,5.39,5.39,0,0,1-4.86,5.83c-2.59.14-4.8-2.12-5-5.29-.34-6.24-2.29-11.72-7.24-15.84C117,9.45,109.81,8.41,102.54,11.6s-11.75,9-11.86,17.24c-.19,12.7-.08,25.4-.13,38.1a21.47,21.47,0,0,1-.38,4.16c-.58,2.81-2.33,4.09-5.13,3.83s-4.23-1.77-4.29-4.46c-.11-5.1-.11-10.2-.09-15.3,0-1.66-.4-2.56-2.35-2.55-16.8.06-33.6,0-50.4.06A9.78,9.78,0,0,0,26.44,53Zm57-7.79a10.86,10.86,0,0,1-1.47.27c-18.7,0-37.4,0-56.1.05-2,0-2.36-.89-2.33-2.55.09-4.9.14-9.79.19-14.69.12-11.67,12-24,27.61-20.5,10.54,2.34,16.9,10.5,17.81,22,.08,1,1.21,2.73,2,2.85,2,.31,2.27-1.49,2.18-3.06C72.81,19.1,68.26,10.88,58.91,6,40.57-3.61,19.36,9.44,19.26,30.18c0,8.4,0,16.8,0,25.2,0,4.7,0,9.4,0,14.1,0,2,.85,3.26,2.85,2.49.74-.29,1.33-1.92,1.36-3,.14-5.2.21-10.4,0-15.59-.08-2.7.71-3.6,3.53-3.58,17.7.12,35.4.06,53.1.07,1,0,2.1.13,3.32.21v2.71c0,5.5-.09,11,.08,16.5a3.55,3.55,0,0,0,1.8,2.73c1.91.54,2.22-1.15,2.34-2.6.1-1.19.07-2.4.08-3.6.06-12.69-.12-25.4.26-38.08C88.28,18.7,93.48,12.38,101.59,9a21.64,21.64,0,0,1,22.61,2.85c6.08,4.62,8.71,10.91,9.15,18.38.05.92,1.36,1.75,2.09,2.63.7-.91,1.92-1.78,2-2.74a19.57,19.57,0,0,0-.48-6A27.3,27.3,0,0,0,107.4,3a27,27,0,0,0-24,26.94C83.41,34.91,83.44,39.9,83.44,45.17Z"/><path class="cls-2" d="M137.33,88.74c0,2-1.61,3.16-3.09,2.51A9.62,9.62,0,0,1,132,89.74c-8-6.77-18-7.38-26.82-1.7-2.92,1.89-5.81,4-9,5.26-8,3.19-15.88,2.16-23.23-2.18-5.11-3-10.23-5.84-16.32-6.1-4.94-.21-9.62.85-13.51,3.94-9.62,7.63-20,7.72-30.71,3.13a67.06,67.06,0,0,1-11-6.47A4,4,0,0,1,.23,81.94c.85-1.86,2.46-.75,3.82-.07,5.05,2.54,10,5.51,15.23,7.4A20,20,0,0,0,37.84,86.7c4.23-2.86,8.49-5.44,13.76-6.15A30.46,30.46,0,0,1,71.88,85c4.67,2.82,9.37,5.3,15,5.27a19.71,19.71,0,0,0,11.52-3.5c4.44-3.09,9-5.92,14.44-6.92,9-1.66,16.73,1,23.3,7.25A9.21,9.21,0,0,1,137.33,88.74Z"/><path class="cls-3" d="M137.43,105.45c-.51,1.92-1.57,2.78-3.34,2.08a10.87,10.87,0,0,1-2.44-1.71c-8.6-6.71-17.8-7.14-26.86-1-4,2.69-7.94,5.3-12.83,6.18-6.68,1.19-12.81-.15-18.78-3.21-4.32-2.21-8.7-4.55-13.33-5.8-6.15-1.67-12.09-.18-17.22,3.8A26.09,26.09,0,0,1,23,111.35,42.63,42.63,0,0,1,.8,101.67c-.7-.58-.55-2.21-.8-3.35,1.33,0,2.86-.5,4,0,5,2.28,9.6,5.31,14.69,7.15a20.62,20.62,0,0,0,20.15-3,27.29,27.29,0,0,1,18.45-5.7,31.83,31.83,0,0,1,15.45,5.12c5.28,3.32,10.92,5.71,17.23,4.46a27.61,27.61,0,0,0,9.27-3.78c5-3.23,10.09-6.13,16.13-6.69,8.29-.78,15.25,2.2,21.18,7.85A6.2,6.2,0,0,1,137.43,105.45Z"/><path class="cls-4" d="M83.44,45.17c0-5.27,0-10.26,0-15.26A27,27,0,0,1,107.4,3,27.3,27.3,0,0,1,137,24.15a19.57,19.57,0,0,1,.48,6c-.09,1-1.31,1.83-2,2.74-.73-.88-2-1.71-2.09-2.63-.44-7.47-3.07-13.76-9.15-18.38A21.64,21.64,0,0,0,101.59,9C93.48,12.38,88.28,18.7,88,27.79c-.38,12.68-.2,25.39-.26,38.08,0,1.2,0,2.41-.08,3.6-.12,1.45-.43,3.14-2.34,2.6a3.55,3.55,0,0,1-1.8-2.73c-.17-5.49-.08-11-.08-16.5V50.13c-1.22-.08-2.27-.21-3.32-.21-17.7,0-35.4,0-53.1-.07-2.82,0-3.61.88-3.53,3.58.17,5.19.1,10.39,0,15.59,0,1-.62,2.66-1.36,3-2,.77-2.87-.45-2.85-2.49.05-4.7,0-9.4,0-14.1,0-8.4,0-16.8,0-25.2C19.36,9.44,40.57-3.61,58.91,6c9.35,4.9,13.9,13.12,14.47,23.59.09,1.57-.16,3.37-2.18,3.06-.84-.12-2-1.8-2-2.85-.91-11.53-7.27-19.69-17.81-22-15.6-3.46-27.49,8.83-27.61,20.5-.05,4.9-.1,9.79-.19,14.69,0,1.66.37,2.56,2.33,2.55,18.7-.06,37.4,0,56.1-.05A10.86,10.86,0,0,0,83.44,45.17Z"/></g></g></svg>