<svg xmlns="http://www.w3.org/2000/svg" viewBox="0 0 323 323"><defs><style>.cls-1{fill:#ffa42f;}.cls-2,.cls-3{fill:none;stroke:#ffa42f;stroke-miterlimit:10;}.cls-2{stroke-width:6px;}.cls-3{stroke-width:3px;}</style></defs><title>二维码2</title><g id="图层_2" data-name="图层 2"><g id="图层_1-2" data-name="图层 1"><path class="cls-1" d="M251.11,256.25h-3c-.82,0-1.5-1.32-1.5-2.94V176.84c0-1.62.68-2.94,1.5-2.94h3c.83,0,1.5,1.32,1.5,2.94v76.47C252.61,254.93,251.94,256.25,251.11,256.25Z"/><path class="cls-1" d="M189.29,197.43h3c.83,0,1.5,1.32,1.5,2.94v52.94c0,1.62-.67,2.94-1.5,2.94h-3c-.83,0-1.5-1.32-1.5-2.94V200.37C187.79,198.75,188.46,197.43,189.29,197.43Z"/><path class="cls-1" d="M218.7,185.66h3c.83,0,1.5,1.32,1.5,2.94v64.71c0,1.62-.67,2.94-1.5,2.94h-3c-.82,0-1.5-1.32-1.5-2.94V188.6C217.2,187,217.88,185.66,218.7,185.66Z"/><path class="cls-1" d="M163,160.25h-3c-.83,0-1.5-1.46-1.5-3.25V72.5c0-1.79.67-3.25,1.5-3.25h3c.83,0,1.5,1.46,1.5,3.25V157C164.5,158.79,163.83,160.25,163,160.25Z"/><path class="cls-1" d="M160,160.25h3c.83,0,1.5,1.86,1.5,4.15v83c0,2.3-.67,4.15-1.5,4.15h-3c-.83,0-1.5-1.85-1.5-4.15v-83C158.5,162.11,159.17,160.25,160,160.25Z"/><path class="cls-1" d="M258.55,163.25H64.45c-1.63,0-3-.67-3-1.5v-3c0-.83,1.32-1.5,3-1.5h194.1c1.63,0,2.95.67,2.95,1.5v3C261.5,162.58,260.18,163.25,258.55,163.25Z"/><rect class="cls-2" x="182" y="66.75" width="70" height="70" rx="20" ry="20"/><rect class="cls-2" x="73" y="66.75" width="70" height="70" rx="20" ry="20"/><rect class="cls-2" x="73" y="183.75" width="70" height="70" rx="20" ry="20"/><circle class="cls-3" cx="161.5" cy="161.5" r="160"/></g></g></svg>
