<svg xmlns="http://www.w3.org/2000/svg" viewBox="0 0 141 143.09"><defs><style>.cls-1,.cls-2{fill:none;stroke:#333;stroke-width:6px;}.cls-1{stroke-miterlimit:10;}.cls-2{stroke-linecap:round;stroke-linejoin:round;}</style></defs><title>我的</title><g id="图层_2" data-name="图层 2"><g id="图层_1-2" data-name="图层 1"><path class="cls-1" d="M38,36.55C38,18.05,52.8,3,71,3s33,15.05,33,33.55c0,16.71-12.27,31-28.55,33.22l-.08,0-.84-.06a52,52,0,0,0-7.06,0l-.84.06-.08,0C50.27,67.55,38,53.26,38,36.55Z"/><path class="cls-2" d="M6.42,139.81A51.16,51.16,0,0,1,3,121.18H3c0-22.7,14.1-41.09,31.5-41.09h72c17.4,0,31.5,18.39,31.5,41.09h0a51.16,51.16,0,0,1-3.42,18.63"/><line class="cls-2" x1="7" y1="140.09" x2="134" y2="140.09"/></g></g></svg>
