<svg xmlns="http://www.w3.org/2000/svg" viewBox="0 0 332.26 329"><defs><style>.cls-1{fill:none;stroke:#ffa42f;stroke-linecap:round;stroke-linejoin:round;stroke-width:10px;}.cls-2{fill:#ffa42f;}</style></defs><title>服务2</title><g id="图层_2" data-name="图层 2"><g id="图层_1-2" data-name="图层 1"><path class="cls-1" d="M327.26,178.55A161.13,161.13,0,0,0,166.13,17.42h0A161.13,161.13,0,0,0,5,178.55"/><rect class="cls-2" x="0.63" y="174.42" width="331" height="10" rx="5" ry="5"/><rect class="cls-2" x="160.03" width="12.19" height="17.42" rx="3.5" ry="3.5"/><rect class="cls-2" x="161.13" y="175.94" width="10" height="125.42" rx="5" ry="5"/><path class="cls-1" d="M128.67,310.51A19.18,19.18,0,0,0,147,324h0a19.16,19.16,0,0,0,19.16-19.16V287.42"/><path class="cls-1" d="M166.13,17.42S80.63,91,90.63,178"/><path class="cls-1" d="M167.82,17.42S253.32,91,243.32,178"/></g></g></svg>
