<svg xmlns="http://www.w3.org/2000/svg" viewBox="0 0 540.06 540.51"><defs><style>.cls-1{fill:#f49f34;}</style></defs><title>点赞</title><g id="图层_2" data-name="图层 2"><g id="图层_1-2" data-name="图层 1"><path class="cls-1" d="M529.23,240.24c-17.09-31.1-43.25-48.67-78.9-50.33-21.58-1-43.24-.39-64.87-.5h-2.93c0-.5.05-.77.1-1a409.73,409.73,0,0,0,6.25-46.68c1.21-14.88,2.05-29.78,2.3-44.7.23-12.85,1.44-25.78-.41-38.55C387.41,35.32,375.12,18,354.21,7.59,331.3-3.79,308.51-2.29,287,11.52c-16,10.29-25.63,25.23-29.26,44-1.54,8-1.21,16-1.18,24,.06,21.41-3.87,42-13.87,61-25.94,49.14-66.86,74.64-122.56,75.68-21.53.4-43.07.07-64.61.06a55.19,55.19,0,0,0-18.7,2.88C14,227.25,0,247.08,0,271.5Q0,378.35,0,485.17c0,7.31,1,14.49,3.92,21.18C12.94,526.84,28.54,539,51,540c23.28,1,46.63.33,69.95.37a13.76,13.76,0,0,0,6.48-1.4c5.63-3,7.62-7.83,7.62-13.94q0-137.42,0-274.8c0-2.48-1-5.7.44-7.22,1.28-1.35,4.52-.81,6.88-1.13a160.15,160.15,0,0,0,69.17-26.11q45.74-31,63.66-83.33c6.29-18.46,8.65-37.49,8.41-56.92a87.47,87.47,0,0,1,.45-13.91c3.36-23.15,26.73-38.88,49.41-33.15,18.75,4.73,31.11,20.62,31.07,40.12,0,24.13-.66,48.25-2.77,72.3-1.69,19.38-3.63,38.75-9.91,57.35a13.31,13.31,0,0,0-.51,7.13c1.51,6.9,6.8,10.91,14.45,10.94q39,.21,78,.36c8.89,0,17.63.85,26,4.15a67.79,67.79,0,0,1,40.34,82.7c-4.15,14.2-9,28.15-14,42.07-17.38,48.63-36.27,96.71-55,144.83-2.57,6.58-7.14,11.43-12.74,15.45-8.28,6-17.79,7.49-27.68,7.49H205a36,36,0,0,0-3.75.11,13.45,13.45,0,0,0-10.2,20.45c3.09,5,7.86,6.49,13.52,6.48q98.66-.09,197.32,0c16.17,0,31.07-4.13,44-14,8.48-6.47,15.59-14.12,19.54-24.3,7.2-18.51,14.5-37,21.66-55.5,15.71-40.61,31.28-81.27,45-122.62,3.68-11.11,7.1-22.3,7.75-34.07,1-17.46-2.19-34.17-10.66-49.57ZM105.14,513.39c-16.62-.1-33.24,0-49.86,0S27,501.71,27,485.27q-.07-107,0-213.91c0-16.19,11.64-27.91,27.81-28.05,17-.15,34,0,50.93-.09,2.33,0,2.3,1.07,2.3,2.74q0,66.22,0,132.43t.06,132.16c0,2.42-.66,2.86-2.93,2.84Z"/></g></g></svg>
