<svg xmlns="http://www.w3.org/2000/svg" viewBox="0 0 638.36 755.93"><defs><style>.cls-1{fill:#f49f34;}.cls-2,.cls-3{fill:none;}.cls-3{stroke:#f49f34;stroke-linecap:round;stroke-linejoin:round;stroke-width:20px;}</style></defs><title>点赞效果</title><g id="图层_2" data-name="图层 2"><g id="图层_1-2" data-name="图层 1"><path d="M365.75,365.64h0c0-.16,0-.3,0-.44Z"/><path class="cls-1" d="M529.23,454.7C512.14,423.6,486,406,450.33,404.37c-21.58-1-43.24-.39-64.87-.5h-2.93c0-.5.05-.77.1-1a409.73,409.73,0,0,0,6.25-46.68c1.21-14.88,2.05-29.78,2.3-44.69.23-12.86,1.44-25.79-.41-38.56-3.36-23.13-15.65-40.46-36.56-50.85-22.91-11.39-45.7-9.89-67.18,3.93-16,10.28-25.63,25.22-29.26,44-1.54,8-1.21,16-1.18,24,.06,21.41-3.87,42.05-13.87,61-25.94,49.14-66.86,74.64-122.56,75.68-21.53.4-43.07.07-64.61.06a55.19,55.19,0,0,0-18.7,2.88C14,441.71,0,461.54,0,486Q0,592.8,0,699.63c0,7.31,1,14.49,3.92,21.18,9,20.49,24.62,32.69,47.12,33.62,23.28,1,46.63.33,69.95.37a13.64,13.64,0,0,0,6.48-1.4c5.63-3,7.62-7.82,7.62-13.94q0-137.4,0-274.79c0-2.49-1-5.7.44-7.23,1.28-1.35,4.52-.81,6.88-1.13a160.15,160.15,0,0,0,69.17-26.11q45.74-31,63.66-83.32c6.29-18.47,8.65-37.5,8.41-56.93a87.47,87.47,0,0,1,.45-13.91c3.36-23.15,26.73-38.88,49.41-33.15,18.75,4.73,31.11,20.62,31.07,40.12,0,24.13-.66,48.25-2.77,72.3-1.69,19.38-3.63,38.75-9.91,57.35a13.31,13.31,0,0,0-.51,7.13c1.51,6.9,6.8,10.91,14.45,10.95q39,.19,78,.35c8.89,0,17.63.85,26,4.15a67.79,67.79,0,0,1,40.34,82.7c-4.15,14.2-9,28.15-14,42.07-17.38,48.64-36.27,96.71-55,144.83-2.57,6.58-7.14,11.43-12.74,15.45-8.28,6-17.79,7.49-27.68,7.49H205a33.48,33.48,0,0,0-3.75.11,13.44,13.44,0,0,0-10.2,20.44c3.09,5,7.86,6.49,13.52,6.48q98.66-.08,197.32,0c16.17,0,31.07-4.14,44-14,8.48-6.47,15.59-14.12,19.54-24.3,7.2-18.51,14.5-37,21.66-55.49,15.71-40.62,31.28-81.28,45-122.63,3.68-11.11,7.1-22.3,7.75-34.07,1-17.46-2.19-34.17-10.66-49.57ZM105.14,727.86c-16.62-.1-33.24,0-49.86-.06S27,716.18,27,699.73q-.07-107,0-213.91c0-16.19,11.64-27.91,27.81-28.05,17-.14,34,0,50.93-.09,2.33,0,2.3,1.07,2.3,2.75q0,66.21,0,132.42T108.07,725c0,2.42-.66,2.86-2.93,2.85Z"/><rect class="cls-2" y="214.01" width="540.96" height="541.92"/><line class="cls-3" x1="328.56" y1="10" x2="328.56" y2="93"/><line class="cls-3" x1="499.75" y1="40.56" x2="458.25" y2="112.44"/><line class="cls-3" x1="628.36" y1="125.52" x2="562.89" y2="176.54"/><line class="cls-3" x1="94.7" y1="188.31" x2="29.23" y2="137.3"/><line class="cls-3" x1="201.63" y1="115.55" x2="156.61" y2="45.82"/></g></g></svg>
