<svg xmlns="http://www.w3.org/2000/svg" viewBox="0 0 188 153.39"><defs><style>.cls-1,.cls-2,.cls-3,.cls-4,.cls-6{fill:none;}.cls-1{stroke:#000;}.cls-1,.cls-3{stroke-linecap:round;stroke-linejoin:round;}.cls-1,.cls-2,.cls-3{stroke-width:5px;}.cls-2,.cls-3,.cls-4,.cls-6{stroke:#353535;}.cls-2,.cls-4,.cls-6{stroke-miterlimit:10;}.cls-4{stroke-width:4px;}.cls-5{fill:#ffa42f;}.cls-6{stroke-width:3px;}</style></defs><title>我要入驻</title><g id="图层_2" data-name="图层 2"><g id="图层_1-2" data-name="图层 1"><path class="cls-1" d="M126.64,44.05h28.58a10,10,0,0,1,10,10v96.83a0,0,0,0,1,0,0H126.64a0,0,0,0,1,0,0V44.05A0,0,0,0,1,126.64,44.05Z"/><path class="cls-2" d="M31.79,2.5h84.85a10,10,0,0,1,10,10V150.89a0,0,0,0,1,0,0H21.79a0,0,0,0,1,0,0V12.5A10,10,0,0,1,31.79,2.5Z"/><line class="cls-3" x1="2.5" y1="150.88" x2="185.5" y2="150.88"/><rect class="cls-4" x="45.59" y="38.56" width="58.25" height="26.33" rx="5" ry="5"/><rect class="cls-5" x="52.71" y="45.23" width="44" height="13" rx="5" ry="5"/><rect class="cls-6" x="46.39" y="82.53" width="23.94" height="23.94" rx="3" ry="3"/><rect class="cls-6" x="78.3" y="82.53" width="23.94" height="23.94" rx="3" ry="3"/></g></g></svg>
