<svg xmlns="http://www.w3.org/2000/svg" viewBox="0 0 143.49 155.08"><defs><style>.cls-1,.cls-2,.cls-3{fill:none;stroke:#000;}.cls-1{stroke-miterlimit:10;}.cls-1,.cls-3{stroke-width:5px;}.cls-2,.cls-3{stroke-linecap:round;stroke-linejoin:round;}.cls-2{stroke-width:4px;}.cls-4{fill:#ffa42f;}</style></defs><title>融资对接</title><g id="图层_2" data-name="图层 2"><g id="图层_1-2" data-name="图层 1"><circle class="cls-1" cx="38.24" cy="116.83" r="35.74"/><line class="cls-2" x1="26.39" y1="102.17" x2="38.27" y2="113.85"/><line class="cls-2" x1="50.06" y1="102.12" x2="38.27" y2="113.85"/><line class="cls-2" x1="38.27" y1="134" x2="38.27" y2="113.85"/><line class="cls-2" x1="25.11" y1="116.86" x2="51" y2="116.86"/><line class="cls-2" x1="25.11" y1="124.74" x2="51" y2="124.74"/><path class="cls-3" d="M11,93.08V12.5a10,10,0,0,1,10-10H131a10,10,0,0,1,10,10v129a10,10,0,0,1-10,10H47.06"/><line class="cls-3" x1="50.24" y1="30.5" x2="122.99" y2="30.5"/><line class="cls-3" x1="71.66" y1="54.5" x2="122.99" y2="54.5"/><rect class="cls-4" x="85.49" y="75.5" width="43" height="60.5" rx="5" ry="5"/></g></g></svg>
