<svg id="图层_1" data-name="图层 1" xmlns="http://www.w3.org/2000/svg" viewBox="0 0 161.4 163.49"><defs><style>.cls-1{fill:none;stroke:#000;stroke-linecap:round;stroke-linejoin:round;stroke-width:5px;}.cls-2{fill:#ffa021;}</style></defs><title>１</title><path class="cls-1" d="M244.92,170.12a41.95,41.95,0,0,1,38.22,59.19" transform="translate(-169.61 -167.62)"/><path class="cls-1" d="M239.61,253.64a41.93,41.93,0,0,1,5.31-83.52" transform="translate(-169.61 -167.62)"/><path class="cls-1" d="M239.61,254.07a75.64,75.64,0,0,0-67.31,68.19s-.52,4.57.18,5.9h67" transform="translate(-169.61 -167.62)"/><path class="cls-1" d="M293.08,268.87" transform="translate(-169.61 -167.62)"/><rect class="cls-1" x="84.87" y="77.07" width="74.03" height="83.91" rx="10" ry="10"/><line class="cls-1" x1="100.98" y1="98.05" x2="142.29" y2="98.05"/><line class="cls-1" x1="100.98" y1="119.03" x2="142.29" y2="119.03"/><line class="cls-1" x1="100.98" y1="140.01" x2="121.64" y2="140.01"/><circle class="cls-2" cx="75.39" cy="45.38" r="21"/></svg>
