<svg xmlns="http://www.w3.org/2000/svg" viewBox="0 0 141 153.11"><defs><style>.cls-1,.cls-2{fill:none;stroke:#000;stroke-miterlimit:10;}.cls-1{stroke-width:5px;}.cls-2{stroke-width:6px;}.cls-3{fill:#ffa42f;}</style></defs><title>企业管家</title><g id="图层_2" data-name="图层 2"><g id="图层_1-2" data-name="图层 1"><path class="cls-1" d="M129.17,21.69a20,20,0,0,1,9.33,16.92v102a10,10,0,0,1-10,10h-22"/><path class="cls-1" d="M13.61,20.68A20,20,0,0,0,2.5,38.61v102a10,10,0,0,0,10,10h22"/><line class="cls-2" x1="31" y1="150.64" x2="31" y2="37.54"/><line class="cls-2" x1="110" y1="37.25" x2="110" y2="150.64"/><path class="cls-1" d="M82,13.27l4.83-2.86,24.92-6.92c7.69-3.08,16.61,1.38,16.61,8.31V28.11c-.11,5.07-5.16,8.85-10.86,9.13a13.48,13.48,0,0,1-5.75-1h0L86.85,29.34l-4.24-2.55"/><path class="cls-3" d="M90.2,16.26l3.12-1.56,16.13-3.78c5-1.69,10.75.75,10.75,4.54v8.92c-.07,2.77-3.34,4.84-7,5a10.23,10.23,0,0,1-3.73-.54h0L93.32,25.05l-2.74-1.4"/><path class="cls-1" d="M60.78,26l-5.63,3.39L30.23,36.26h0c-7.54,3.08-16.46-1.39-16.61-8.15V11.8c0-6.93,8.92-11.39,16.61-8.31l24.92,6.92,5.63,3.34"/><path class="cls-3" d="M52.2,23.2l-3.58,1.85L32.77,28.83h0C28,30.52,22.3,28.08,22.2,24.38V15.46c0-3.79,5.67-6.23,10.57-4.54L48.62,14.7l3.58,1.82"/><path class="cls-1" d="M71,7.8A12.16,12.16,0,1,0,83.15,20,12.07,12.07,0,0,0,71,7.8Z"/><path class="cls-1" d="M59.46,72.11a11.54,11.54,0,0,0,23.08,0h0a11.54,11.54,0,1,0-23.08,0Z"/><path class="cls-1" d="M59.46,113.64a11.54,11.54,0,1,0,23.08,0h0a11.54,11.54,0,0,0-23.08,0Z"/><line class="cls-1" x1="19.5" y1="150.61" x2="122.5" y2="150.61"/></g></g></svg>
