<svg xmlns="http://www.w3.org/2000/svg" viewBox="0 0 172.15 158.5"><defs><style>.cls-1,.cls-3{fill:none;stroke:#000;stroke-width:5px;}.cls-1{stroke-miterlimit:10;}.cls-2{fill:#ffa42f;}.cls-3{stroke-linecap:round;stroke-linejoin:round;}</style></defs><title>会议室</title><g id="图层_2" data-name="图层 2"><g id="图层_1-2" data-name="图层 1"><circle class="cls-1" cx="42.64" cy="102.5" r="22"/><circle class="cls-2" cx="42.64" cy="102.5" r="13"/><path class="cls-3" d="M2.5,155.5a41,41,0,0,1,79.15-.5"/><line class="cls-3" x1="3.14" y1="156" x2="81.14" y2="156"/><circle class="cls-1" cx="130.64" cy="102.5" r="22"/><circle class="cls-2" cx="130.64" cy="102.5" r="13"/><path class="cls-3" d="M90.5,155.5a41,41,0,0,1,79.15-.5"/><line class="cls-3" x1="91.14" y1="156" x2="169.14" y2="156"/><line class="cls-3" x1="42.14" y1="29" x2="127.14" y2="29"/><line class="cls-3" x1="42.14" y1="57" x2="91.14" y2="57"/><path class="cls-3" d="M25.08,115.75H13.14a10,10,0,0,1-10-10V12.5a10,10,0,0,1,10-10h144a10,10,0,0,1,10,10v93.25a10,10,0,0,1-10,10H149"/><line class="cls-3" x1="113.08" y1="115.75" x2="60.2" y2="115.75"/></g></g></svg>
