<svg xmlns="http://www.w3.org/2000/svg" viewBox="0 0 174.5 162.46"><defs><style>.cls-1,.cls-2{fill:none;stroke:#000;stroke-width:5px;}.cls-1{stroke-miterlimit:10;}.cls-2{stroke-linecap:round;stroke-linejoin:round;}.cls-3{fill:#ffa42f;}</style></defs><title>空间申请</title><g id="图层_2" data-name="图层 2"><g id="图层_1-2" data-name="图层 1"><rect class="cls-1" x="26.14" y="2.5" width="82.97" height="57.09" rx="5" ry="5"/><path class="cls-1" d="M11.42,160A8.92,8.92,0,0,1,2.5,151V79.31a5,5,0,0,1,5-5H167a5,5,0,0,1,5,5V155a5,5,0,0,1-5,5H118.32"/><line class="cls-1" x1="17.67" y1="159.96" x2="11.42" y2="159.96"/><line class="cls-1" x1="118.32" y1="159.96" x2="115.83" y2="159.96"/><path class="cls-2" d="M17.67,160V99.59a5,5,0,0,1,5-5h89a5,5,0,0,1,5,5V160"/><line class="cls-1" x1="67.62" y1="59.15" x2="67.62" y2="74.31"/><rect class="cls-3" x="126.86" y="85.46" width="33.94" height="64" rx="5" ry="5"/></g></g></svg>
