<svg id="图层_1" data-name="图层 1" xmlns="http://www.w3.org/2000/svg" viewBox="0 0 160.16 162.16"><defs><style>.cls-1{fill:#484848;}</style></defs><title>邀请</title><path class="cls-1" d="M332.62,316.06c-8,6-18,9-28.94,9s-20-3-28.94-9c0,1-1,1-2,1a65.25,65.25,0,0,0-34.93,57.88,5,5,0,1,1-10,0,74.38,74.38,0,0,1,38.92-65.86c-8-9-14-21-14-33.93a49.89,49.89,0,1,1,99.79,0,47.52,47.52,0,0,1-14,33.93c10,6,19,13,24.95,23,2,2,1,5-1,7s-5,1-7-1a65.75,65.75,0,0,0-23-21c1,0,1-1,0-1Zm8,58.87L379.52,336a4.94,4.94,0,0,1,7,7l-42.91,42.91a4.82,4.82,0,0,1-7,0l-21-21a4.94,4.94,0,1,1,7-7Zm-35.92-59.87a39.92,39.92,0,1,0-39.92-39.91,40,40,0,0,0,39.92,39.91Zm0,0" transform="translate(-227.84 -225.26)"/></svg>
