<svg xmlns="http://www.w3.org/2000/svg" viewBox="0 0 22 22"><defs><style>.cls-1{fill:none;stroke:#484848;stroke-linecap:round;stroke-linejoin:round;stroke-width:2px;}</style></defs><title>资源 12</title><g id="图层_2" data-name="图层 2"><g id="图层_1-2" data-name="图层 1"><g id="icon"><path id="Shape" class="cls-1" d="M5.3,2.8A5.6,5.6,0,0,1,6.9,4.6c.4.6,1.3,2.5.5,3.6S3.8,9.8,3.8,10.9c0,.8,1.2,1.8,1.8,2.7a3.32,3.32,0,0,1,0,3.6,3.18,3.18,0,0,1-1.2,1.1"/><path id="Shape-2" data-name="Shape" class="cls-1" d="M18.8,4.8a17,17,0,0,1-5.1,1.6c-.9.1-1.1-.7-1.8-1.8-.5-.8-1.8-1.9-1.8-2.7a2.48,2.48,0,0,1,.1-.9"/><circle id="Oval" class="cls-1" cx="11" cy="11" r="10"/><path id="Shape-3" data-name="Shape" class="cls-1" d="M17.4,11.8c0,2.8-3.6,6.3-5.5,5.5-1.6-.6-.5-1.9-.9-5.5-.2-1.5,1.5-2.7,3.2-2.7A3,3,0,0,1,17.4,11.8Z"/></g></g></g></svg>
