<svg xmlns="http://www.w3.org/2000/svg" viewBox="0 0 18.8 21.8"><defs><style>.cls-1{fill:none;stroke:#484848;stroke-linecap:round;stroke-linejoin:round;stroke-width:1.8px;}</style></defs><title>资源 9</title><g id="图层_2" data-name="图层 2"><g id="图层_1-2" data-name="图层 1"><g id="icon"><polyline id="Shape" class="cls-1" points="10.9 0.9 10.9 8.9 7.9 6.9 4.9 8.9 4.9 0.9"/><path id="Shape-2" data-name="Shape" class="cls-1" d="M2.9.9a1.89,1.89,0,0,0-2,2v16a2.14,2.14,0,0,1,2-2h13c1.2.2,2-.6,2-2V2.9a1.89,1.89,0,0,0-2-2Z"/><path id="Shape-3" data-name="Shape" class="cls-1" d="M15.9,20.9a1.94,1.94,0,0,0,2-2v-4a1.94,1.94,0,0,1-2,2H2.9a2,2,0,1,0,0,4Z"/></g></g></g></svg>
