<svg xmlns="http://www.w3.org/2000/svg" viewBox="0 0 195.6 195.4"><defs><style>.cls-1{fill:none;}.cls-1,.cls-2{stroke:#000;stroke-linecap:round;stroke-linejoin:round;stroke-width:8px;}.cls-2{fill:#ffa201;}</style></defs><title>资源 1</title><g id="图层_2" data-name="图层 2"><g id="图层_1-2" data-name="图层 1"><path class="cls-1" d="M5,84.95A106.27,106.27,0,0,1,86.71,4"/><line class="cls-1" x1="5.77" y1="86.01" x2="85.74" y2="86.01"/><line class="cls-1" x1="86.8" y1="4.42" x2="86.8" y2="84.95"/><path class="cls-1" d="M191.6,84.95A106.27,106.27,0,0,0,109.89,4"/><line class="cls-1" x1="190.83" y1="86.01" x2="110.86" y2="86.01"/><line class="cls-2" x1="109.8" y1="4.42" x2="109.8" y2="84.95"/><path class="cls-1" d="M4,111.44a105,105,0,0,0,80.72,80"/><line class="cls-1" x1="4.76" y1="110.39" x2="83.75" y2="110.39"/><line class="cls-1" x1="84.8" y1="190.99" x2="84.8" y2="111.44"/><path class="cls-1" d="M190.6,111.44a105,105,0,0,1-80.72,80"/><line class="cls-1" x1="189.84" y1="110.39" x2="110.85" y2="110.39"/><line class="cls-1" x1="109.8" y1="190.99" x2="109.8" y2="111.44"/></g></g></svg>