<svg xmlns="http://www.w3.org/2000/svg" xmlns:xlink="http://www.w3.org/1999/xlink" viewBox="0 0 686.57 681"><defs><style>.cls-1,.cls-2{fill:none;}.cls-2,.cls-5{stroke:#000;stroke-miterlimit:10;}.cls-3{clip-path:url(#clip-path);}.cls-4{clip-path:url(#clip-path-2);}</style><clipPath id="clip-path"><rect class="cls-1" x="0.5" y="0.5" width="685.57" height="680"/></clipPath><clipPath id="clip-path-2"><rect class="cls-2" x="0.5" y="0.5" width="685.57" height="680"/></clipPath></defs><title>创业服务</title><g id="图层_2" data-name="图层 2"><g id="图层_1-2" data-name="图层 1"><g class="cls-3"><path d="M567.24,679.64c-32,0-68.56-9.14-114.26-27.42-9.14-4.57-9.14-9.14-9.14-18.28,4.57-9.14,13.71-9.14,18.28-9.14,73.13,32,132.54,32,160,4.57s27.42-86.84-4.57-160c-32-77.7-96-164.54-173.68-242.24C311.29,94.62,160.47,16.92,78.2,30.63c-9.14,0-13.71-4.57-18.28-9.14S64.49,7.79,69.06,3.21c96-18.28,251.37,64,393.06,201.1,82.27,82.27,146.26,169.1,178.25,251.37q54.85,130.26,0,192c-13.71,22.85-36.56,32-73.13,32Zm-228.52-96c-4.57,0-4.57,0-9.14-4.57-41.14-32-82.27-64-123.41-105.12C82.77,350.57.5,204.32.5,108.34q0-13.71,13.71-13.71t13.71,13.71c0,86.84,77.7,224,196.53,342.79,36.56,36.56,77.7,73.13,118.83,100.55,4.57,4.57,9.14,13.71,4.57,18.28,0,9.14-4.57,13.71-9.14,13.71Zm0,0"/></g><path d="M300,341.9a43.33,43.33,0,1,0,21.66-37.52A43.33,43.33,0,0,0,300,341.9Zm0,0"/><path d="M343.29,401.85c-35.45,0-65-29.54-65-65s29.54-65,65-65,65,29.54,65,65-29.54,65-65,65Zm0-103.39c-23.63,0-41.36,17.72-41.36,41.36s17.72,41.36,41.36,41.36,41.36-17.72,41.36-41.36-17.72-41.36-41.36-41.36Zm0,0"/><path d="M.5,53.49A22.85,22.85,0,1,0,23.35,30.63,22.85,22.85,0,0,0,.5,53.49Zm0,0"/><path d="M640.37,167.75a22.85,22.85,0,1,0,22.85-22.85,22.85,22.85,0,0,0-22.85,22.85Zm0,0"/><g class="cls-4"><path class="cls-5" d="M379.85,611.09a22.85,22.85,0,1,0,22.85-22.85,22.85,22.85,0,0,0-22.85,22.85Zm0,0"/><path class="cls-5" d="M110.19,679.64c-32,0-59.42-9.14-77.7-27.42-36.56-36.56-36.56-105.12,0-192,32-82.27,96-169.11,178.25-251.37S379.85,62.63,462.12,30.63q130.25-54.84,192,0c18.28,18.28,27.42,41.14,27.42,73.13q0,13.71-13.71,13.71t-13.71-13.71c0-22.85-9.14-41.14-18.28-54.85C608.37,21.5,549,21.5,475.83,53.49c-77.7,32-164.54,96-242.23,173.68S91.91,391.7,59.92,469.4c-32,73.13-32,132.54-4.57,160,59.42,59.42,246.81-18.28,402.2-178.25,68.56-68.56,123.4-141.69,160-210.24,4.57-9.14,13.71-9.14,18.28-4.57,9.14,4.57,9.14,13.71,4.57,18.28Q585.52,364.28,475.83,474c-128,128-269.66,205.67-365.64,205.67Zm0,0"/></g><rect class="cls-2" x="0.5" y="0.5" width="685.57" height="680"/></g></g></svg>