<svg xmlns="http://www.w3.org/2000/svg" viewBox="0 0 695.78 704"><defs><style>.cls-1{fill:#108ee9;}.cls-2,.cls-3{fill:none;stroke:#000;stroke-width:24px;}.cls-2{stroke-linecap:round;stroke-linejoin:round;}.cls-3{stroke-miterlimit:10;}</style></defs><title>2</title><g id="图层_2" data-name="图层 2"><g id="图层_1-2" data-name="图层 1"><path class="cls-1" d="M390.49,685.41"/><path class="cls-2" d="M74.39,12h292.7a62.39,62.39,0,0,1,62.39,62.39V692a0,0,0,0,1,0,0H12a0,0,0,0,1,0,0V74.39A62.39,62.39,0,0,1,74.39,12Z"/><path class="cls-2" d="M429.9,692V201.26H621.67a62.3,62.3,0,0,1,62.11,62.11V692H497.6"/><path class="cls-3" d="M181.7,454.15h78.09a49.57,49.57,0,0,1,49.57,49.57V691.38a0,0,0,0,1,0,0H132.13a0,0,0,0,1,0,0V503.72A49.57,49.57,0,0,1,181.7,454.15Z"/><line class="cls-2" x1="144.08" y1="195.29" x2="297.4" y2="195.29"/><line class="cls-2" x1="511.54" y1="330.69" x2="602.14" y2="330.69"/><line class="cls-2" x1="511.54" y1="423.29" x2="602.14" y2="423.29"/><line class="cls-2" x1="511.54" y1="515.88" x2="602.14" y2="515.88"/><line class="cls-2" x1="144.08" y1="302.82" x2="297.4" y2="302.82"/></g></g></svg>