<svg xmlns="http://www.w3.org/2000/svg" viewBox="0 0 684.13 693"><defs><style>.cls-1{fill:none;stroke:#000;stroke-miterlimit:10;stroke-width:26px;}</style></defs><title>3</title><g id="图层_2" data-name="图层 2"><g id="图层_1-2" data-name="图层 1"><path d="M740.61,457.83"/><path d="M512.94,692.8a5.3,5.3,0,0,1-1-.27l-17.32-4.17a13.32,13.32,0,0,1-5.43-2.72c-.29-.22-27.71-22.51-51-31.57-1.56-.61-5.83-1.87-16.83-3.67-17.39-2.85-42.95-5.66-70.47-8.65-51.76-5.74-112.24-13-137.52-21.12-35.06-11.17-97.75-69.47-193.68-180.49C11,429.93-8.78,400.34,4.41,385.63,14.57,374.45,29.94,370,47.5,372.83S81,385.06,90.2,392.93c8.25,7,20.58,20,35,35.06,24.4,25.67,65.39,68.45,81,73.07,30.51,9.1,125.55,16.31,158.62,18.55,19.33,1.36,27.06-.92,29.18-.71a12.48,12.48,0,0,0-2-2.53c-5.29-2.11-42.58-11-72.63-18-34.9-8.31-72.68-17.29-91.7-22.68-25-7.13-33.31-24.68-30.43-39,3.24-15.83,21-30.9,52.27-27,10.09,1.3,29.1,3.44,53,6,71.77,7.89,188.13,20.73,234.27,31.37,64.63,15.28,141.16,112.27,144.43,116.34A13.58,13.58,0,0,1,683,577.35l-5.5,12.59a13.75,13.75,0,0,1-5.14,6l-150,95.13a14,14,0,0,1-9.38,1.74Zm141.86-119c-24.29-29.56-81.47-90.3-124.16-100.24-45-10.44-160.16-23-231-30.71-24-2.62-43.28-4.72-53.53-6.05-14.57-1.85-21.61,3.06-22.11,5.38-.24.87,2.06,4.78,11.18,7.32,18.86,5.36,56.15,14.26,90.5,22.39,51.84,12.33,72,17.18,77.56,19.83,9.61,4.46,21.49,19.07,17.78,33.81-6.36,24.93-45.26,22.24-58.08,21.28-34.3-2.37-132.41-10.13-164.59-19.62-20.94-6.31-53.13-38.7-93-80.44-13.25-13.94-25.8-27.08-33-33.11-10.35-8.76-34.24-18.1-44.76-12.31,1.64,4.79,6,13.64,14.38,23.46,117.11,135.53,162.61,164.71,179.47,170,22.53,7.19,82.26,14.43,132.23,20,44.67,4.89,81.61,9.23,94,14,23.21,9,48.17,27.74,56.05,34l8.69,2.14,141.57-89.81Zm0,0"/><path class="cls-1" d="M341.45,330A158.52,158.52,0,1,0,182.94,171.52C182.87,259.1,253.87,330,341.45,330Z"/><rect x="277.85" y="107.99" width="73.47" height="20.41" rx="9.7" ry="9.7" transform="translate(133.2 -164.71) rotate(36.74)"/><rect x="329.44" y="107.99" width="73.47" height="20.41" rx="9.7" ry="9.7" transform="translate(2.04 242.53) rotate(-36.74)"/><rect x="280.23" y="140.64" width="122.45" height="20.41" rx="9.7" ry="9.7"/><rect x="280.23" y="189.62" width="122.45" height="20.41" rx="9.7" ry="9.7"/><rect x="280.23" y="181.46" width="122.45" height="20.41" rx="9.7" ry="9.7" transform="translate(149.79 533.12) rotate(-90)"/></g></g></svg>