<svg xmlns="http://www.w3.org/2000/svg" viewBox="0 0 755.56 680"><title>4</title><g id="图层_2" data-name="图层 2"><g id="图层_1-2" data-name="图层 1"><path d="M103.89,368.33c57.61,0,103.89-20.78,103.89-47.22H0c0,26.45,46.28,47.22,103.89,47.22Zm0,0"/><path d="M659.22,94.44h1.89V80.28a14.53,14.53,0,0,0-14.17-14.17H396.67V4.72A4.46,4.46,0,0,0,391.95,0H363.61a4.46,4.46,0,0,0-4.72,4.72V66.11H108.61A14.53,14.53,0,0,0,94.44,80.28V94.44h1.89L0,321.11H207.78L111.44,94.44H358.89V623.33H236.11a9.46,9.46,0,0,0-9.45,9.44v37.78a9.46,9.46,0,0,0,9.45,9.45H519.44a9.47,9.47,0,0,0,9.45-9.45V632.78a9.46,9.46,0,0,0-9.45-9.44H396.67V94.44H644.11L547.78,321.11H755.56ZM179.45,302.22H28.33l75.56-178.5Zm472.22-178.5,75.56,178.5H576.11Zm0,0"/><path d="M547.78,321.11c0,26.45,46.28,47.22,103.89,47.22s103.89-20.78,103.89-47.22Zm0,0"/></g></g></svg>