<svg xmlns="http://www.w3.org/2000/svg" viewBox="0 0 679.17 680"><title>人力</title><g id="图层_2" data-name="图层 2"><g id="图层_1-2" data-name="图层 1"><path d="M598.16,474.23a81.11,81.11,0,0,1-81.1-81.1c0-.91,0-1.74.08-2.66l-45.9-10.29a137.22,137.22,0,0,1-56.36,74.29l38.6,66.82A81.15,81.15,0,1,1,429,533.58l-38.43-66.66a136.9,136.9,0,0,1-148.83-32.7l-89.48,70.56a81.4,81.4,0,1,1-16.43-20.84l89.48-70.56a137.12,137.12,0,0,1,9.13-160.79L128.75,147a80.88,80.88,0,1,1,18.59-18.51l105.5,105.59A136.9,136.9,0,0,1,375.2,206.85l21.33-54.12a81.3,81.3,0,1,1,38.27,9.46,79.68,79.68,0,0,1-14.86-1.41l-21.5,54.37a137,137,0,0,1,78.94,124.18,130.7,130.7,0,0,1-.75,14l45.9,10.38a81.08,81.08,0,1,1,75.62,110.49ZM340.42,232.17A108.82,108.82,0,1,0,449.24,341,108.83,108.83,0,0,0,340.42,232.17Zm0,0"/></g></g></svg>