<svg xmlns="http://www.w3.org/2000/svg" viewBox="0 0 704 548.85"><defs><style>.cls-1{fill:none;stroke:#000;stroke-linecap:round;stroke-linejoin:round;stroke-width:24px;}</style></defs><title>IT服务</title><g id="图层_2" data-name="图层 2"><g id="图层_1-2" data-name="图层 1"><path class="cls-1" d="M611.31,219.27c6.25,22.44,5,30.72,5,55.15,0,144.93-117.49,262.43-262.43,262.43S91.44,419.36,91.44,274.43,208.93,12,353.86,12A262.25,262.25,0,0,1,576.54,135.49"/><path class="cls-1" d="M83.56,280.34s-164.48,78.79,5.29,109.53c0,0,223.2,55.93,538-82.79,0,0,168.75-102.58-37.1-95.65"/><path class="cls-1" d="M350.36,82.24c4.78.33-99.8-2.38-136.66,66"/><path class="cls-1" d="M185.51,193.75s-13.67,27.81-13.67,46.58"/></g></g></svg>