<svg xmlns="http://www.w3.org/2000/svg" viewBox="0 0 293.92 391.07"><defs><style>.cls-1{fill:#f49f34;}</style></defs><title>政策扶持-地图</title><g id="图层_2" data-name="图层 2"><g id="图层_1-2" data-name="图层 1"><path class="cls-1" d="M147,72.36a65.29,65.29,0,1,0,65.28,65.27A65.34,65.34,0,0,0,147,72.36Zm0,114.2a48.92,48.92,0,1,1,48.91-48.93A49,49,0,0,1,147,186.56Z"/><path class="cls-1" d="M147,0C65.93,0,0,61.74,0,137.63a129.78,129.78,0,0,0,6.61,41,3.27,3.27,0,0,0,.18.47,133,133,0,0,0,13.44,28.29l119.6,180.06a8.18,8.18,0,0,0,6.82,3.66h0a8.18,8.18,0,0,0,6.81-3.64L273.54,207.57a131.23,131.23,0,0,0,13.59-28.51c.06-.15.12-.3.17-.47a129.51,129.51,0,0,0,6.62-41C293.92,61.74,228,0,147,0Zm125,173c-.06.15-.12.31-.17.46a115.59,115.59,0,0,1-11.93,25.19L146.67,368.12,34,198.49a116.32,116.32,0,0,1-11.82-25.07,112.27,112.27,0,0,1-5.8-35.79C16.38,70.76,75,16.37,147,16.37S277.55,70.76,277.55,137.63A113.21,113.21,0,0,1,271.91,173Z"/></g></g></svg>
