<svg xmlns="http://www.w3.org/2000/svg" viewBox="0 0 386.69 399.62"><defs><style>.cls-1{fill:#f49f34;}</style></defs><title>孵化器</title><g id="图层_2" data-name="图层 2"><g id="图层_1-2" data-name="图层 1"><path class="cls-1" d="M242,199.81c0-27.75-21.87-50.28-48.67-50.28s-48.67,22.53-48.67,50.28,21.87,50.28,48.67,50.28S242,227.56,242,199.81Zm-48.67,30.62c-16.33,0-29.64-13.75-29.64-30.62s13.31-30.62,29.64-30.62S223,182.94,223,199.81s-13.32,30.62-29.65,30.62ZM122.91,190a9.84,9.84,0,1,0,9.49,9.83,9.7,9.7,0,0,0-9.49-9.83Zm-40.66,9.83a9.51,9.51,0,1,0,9.5-9.83,9.71,9.71,0,0,0-9.5,9.83Zm-12.13,0c0-20-15.77-36.28-35.1-36.28S0,179.84,0,199.81s15.77,36.27,35.1,36.27,35-16.3,35-36.27Zm-35,16.61A16.35,16.35,0,0,1,19,199.81c0-9.16,7.22-16.61,16.08-16.61a16.36,16.36,0,0,1,16.08,16.61c0,9.16-7.3,16.61-16.08,16.61Zm259.84-6.78a9.84,9.84,0,1,0-9.5-9.83,9.66,9.66,0,0,0,9.5,9.83Zm-31.16,0a9.84,9.84,0,1,0-9.5-9.83,9.71,9.71,0,0,0,9.5,9.83Zm87.81-46.11c-19.33,0-35.1,16.31-35.1,36.28s15.77,36.27,35.1,36.27,35.1-16.3,35.1-36.27-15.77-36.28-35.1-36.28Zm0,52.89a16.36,16.36,0,0,1-16.08-16.61c0-9.16,7.22-16.61,16.08-16.61a16.36,16.36,0,0,1,16.08,16.61c0,9.16-7.22,16.61-16.08,16.61ZM193.33,262.79a9.84,9.84,0,1,0,9.5,9.82,9.7,9.7,0,0,0-9.5-9.82Zm0,32.18a9.83,9.83,0,1,0,9.5,9.82,9.7,9.7,0,0,0-9.5-9.82Zm0,32.17c-19.33,0-35.1,16.31-35.1,36.28s15.77,36.2,35.1,36.2,35.1-16.31,35.1-36.28-15.77-36.2-35.1-36.2Zm0,52.82c-8.88,0-16.08-7.46-16.08-16.62s7.22-16.61,16.08-16.61a16.36,16.36,0,0,1,16.08,16.61c0,9.16-7.22,16.62-16.08,16.62Zm0-243.13a9.84,9.84,0,1,0-9.5-9.83,9.71,9.71,0,0,0,9.5,9.83Zm0-32.18a9.84,9.84,0,1,0-9.5-9.83,9.67,9.67,0,0,0,9.5,9.83Zm0-32.18c19.33,0,35.1-16.3,35.1-36.27S212.66,0,193.33,0s-35.1,16.31-35.1,36.27,15.77,36.2,35.1,36.2Zm0-52.81a16.36,16.36,0,0,1,16.08,16.61c0,9.17-7.22,16.62-16.08,16.62s-16.08-7.45-16.08-16.62,7.22-16.61,16.08-16.61Zm-56.5,224.69a10,10,0,0,0,0,13.93,9.29,9.29,0,0,0,13.47,0,10.07,10.07,0,0,0,0-13.93,9.31,9.31,0,0,0-13.47,0Zm-15.28,39.48a9.84,9.84,0,1,0-9.5-9.83,9.67,9.67,0,0,0,9.5,9.83Zm-64.9,6a37.05,37.05,0,0,0,0,51.25,34.29,34.29,0,0,0,49.62,0,37.05,37.05,0,0,0,0-51.25,34.42,34.42,0,0,0-49.62,0Zm36.12,37.43a15.63,15.63,0,0,1-22.65,0,17,17,0,0,1,0-23.42,15.63,15.63,0,0,1,22.65,0,16.91,16.91,0,0,1,0,23.42ZM265.14,135.45a9.84,9.84,0,1,0-9.5-9.83,9.67,9.67,0,0,0,9.5,9.83ZM243.2,158.13a9.84,9.84,0,1,0-9.5-9.83,9.67,9.67,0,0,0,9.5,9.83ZM330,109.82a37,37,0,0,0,0-51.25,34.28,34.28,0,0,0-49.61,0,37.05,37.05,0,0,0,0,51.25,34.35,34.35,0,0,0,49.61,0ZM293.91,72.4a15.64,15.64,0,0,1,22.66,0,17,17,0,0,1,0,23.42,15.64,15.64,0,0,1-22.66,0,16.93,16.93,0,0,1,0-23.42ZM265.14,283.83a9.84,9.84,0,1,0-9.5-9.83,9.67,9.67,0,0,0,9.5,9.83Zm-28.7-39.48a10.11,10.11,0,0,0,0,13.93,9.29,9.29,0,0,0,13.47,0,10.11,10.11,0,0,0,0-13.93,9.3,9.3,0,0,0-13.47,0Zm44,45.44a37.05,37.05,0,0,0,0,51.25A34.28,34.28,0,0,0,330,341a37,37,0,0,0,0-51.25,34.41,34.41,0,0,0-49.61,0Zm36.22,37.43a15.63,15.63,0,0,1-22.65,0,17,17,0,0,1,0-23.42,15.63,15.63,0,0,1,22.65,0,16.91,16.91,0,0,1,0,23.42ZM143.49,158.13a9.84,9.84,0,1,0-9.5-9.83,9.66,9.66,0,0,0,9.5,9.83Zm-21.94-22.68a9.84,9.84,0,1,0-9.5-9.83,9.67,9.67,0,0,0,9.5,9.83Zm-15.31-25.63a37.05,37.05,0,0,0,0-51.25,34.28,34.28,0,0,0-49.61,0,37.05,37.05,0,0,0,0,51.25,34.41,34.41,0,0,0,49.61,0ZM70,72.4a15.64,15.64,0,0,1,22.66,0,17,17,0,0,1,0,23.42,15.64,15.64,0,0,1-22.66,0A16.93,16.93,0,0,1,70,72.4Z"/></g></g></svg>
